<?xml version="1.0" encoding="utf-8"?>
<!-- Generator: Adobe Illustrator 15.0.2, SVG Export Plug-In . SVG Version: 6.00 Build 0)  -->
<!DOCTYPE svg PUBLIC "-//W3C//DTD SVG 1.1//EN" "http://www.w3.org/Graphics/SVG/1.1/DTD/svg11.dtd">
<svg version="1.1" id="Layer_1" xmlns="http://www.w3.org/2000/svg" xmlns:xlink="http://www.w3.org/1999/xlink" x="0px" y="0px"
	 width="314.094px" height="160.492px" viewBox="0 0 314.094 160.492" enable-background="new 0 0 314.094 160.492"
	 xml:space="preserve">
<path fill="#909090" d="M25.927,342.306l10.801-19.763h3.524l10.993,19.763h-3.639l-2.528-4.865H31.711l-2.528,4.865H25.927z
	 M33.09,334.914h10.648l-5.324-10.112L33.09,334.914z"/>
<path fill="#909090" d="M74.418,342.306l-10.802-19.763h3.562l8.734,16.469l8.35-16.469h3.255l-10.342,19.763H74.418z"/>
<path fill="#909090" d="M103.758,342.306v-19.763h3.293v19.763H103.758z"/>
<path fill="#909090" d="M123.292,342.306l10.801-19.763h3.523l10.993,19.763h-3.639l-2.527-4.865h-13.368l-2.528,4.865H123.292z
	 M130.455,334.914h10.648l-5.324-10.112L130.455,334.914z"/>
<path fill="#909090" d="M172.513,325.224v17.082h-3.294v-17.082h-9.041v-2.681h21.412v2.681H172.513z"/>
<path fill="#909090" d="M196.986,342.306v-19.763h3.296v19.763H196.986z"/>
<path fill="#909090" d="M220.122,327.215c0-1.812,0.325-3.046,0.977-3.697c0.654-0.649,1.875-0.975,3.666-0.975h13.696
	c1.791,0,3.006,0.325,3.645,0.975c0.64,0.651,0.96,1.885,0.96,3.697v10.418c0,1.812-0.32,3.046-0.96,3.696
	c-0.639,0.651-1.854,0.977-3.645,0.977h-13.696c-1.791,0-3.012-0.325-3.666-0.977c-0.651-0.65-0.977-1.884-0.977-3.696V327.215z
	 M223.416,339.548h16.355v-14.363h-16.355V339.548z"/>
<path fill="#909090" d="M262.905,342.306v-19.763h2.069l14.789,13.214c0.714,0.639,1.468,1.468,2.259,2.49
	c-0.207-1.228-0.31-2.848-0.31-4.865v-10.839h3.064v19.763h-1.838l-15.208-13.75c-0.562-0.511-0.881-0.804-0.958-0.881
	c-0.408-0.408-0.752-0.855-1.034-1.34c0.154,1.173,0.231,2.616,0.231,4.328v11.643H262.905z"/>
<path fill="#909090" stroke="#909090" stroke-width="0.75" stroke-miterlimit="10" d="M60.263,223.351
	c0,0.066-0.05,0.225-0.151,0.475c-0.1,0.25-0.233,0.425-0.399,0.525c-0.368,0-0.826,0.008-1.375,0.023
	c-0.552,0.018-1.126,0.034-1.726,0.051c-0.601,0.018-1.201,0.023-1.802,0.023c-0.6,0-1.134,0-1.6,0
	c-0.534,0-1.109-0.006-1.726-0.023c-0.618-0.017-1.109-0.057-1.476-0.125c-0.268,0-0.484,0.135-0.651,0.401
	c-1.134,1.935-2.06,3.593-2.777,4.976c-0.717,1.385-1.208,2.426-1.476,3.127c-0.1,0.302-0.15,0.568-0.15,0.802
	c0,0.3,0.133,0.558,0.4,0.774c0.267,0.218,0.884,0.324,1.851,0.324c0.201,0,0.3,0.068,0.3,0.201c0,0.101-0.083,0.166-0.25,0.201
	c-0.2,0.031-0.4,0.049-0.601,0.049c-0.167,0-0.35,0-0.549,0c-1.035,0-1.86-0.018-2.477-0.049c-0.619-0.035-1.093-0.084-1.427-0.15
	c-0.333-0.068-0.542-0.151-0.625-0.252c-0.083-0.098-0.125-0.23-0.125-0.399c0-0.167,0.083-0.417,0.25-0.751
	c0.667-1.268,1.483-2.615,2.452-4.052c0.967-1.433,1.801-2.769,2.501-4.001c1.067-1.834,2.151-3.76,3.252-5.777
	c1.101-2.019,2.051-3.928,2.852-5.729c0.133-0.334,0.05-0.518-0.25-0.553c-0.233-0.031-0.559-0.057-0.976-0.074
	c-0.417-0.015-0.759-0.025-1.025-0.025c-0.168,0-0.259-0.006-0.276-0.023s-0.024-0.059-0.024-0.127c0-0.198,0.083-0.299,0.25-0.299
	c0.566,0.034,1.317,0.049,2.251,0.049s1.802,0,2.601,0c0.734,0,1.542-0.023,2.427-0.074c0.883-0.049,1.776-0.133,2.676-0.25
	c0.901-0.115,1.768-0.268,2.602-0.451c0.833-0.182,1.551-0.406,2.151-0.674c0.066-0.033,0.132-0.051,0.2-0.051
	c0.167,0,0.25,0.051,0.25,0.15c-0.3,0.335-0.533,0.717-0.7,1.151c-0.134,0.333-0.333,0.5-0.601,0.5
	c-0.599,0.032-1.25,0.058-1.95,0.075s-1.418,0.034-2.151,0.049c-0.734,0.018-1.443,0.034-2.125,0.051
	c-0.684,0.018-1.276,0.041-1.776,0.075c-0.267,0.034-0.459,0.101-0.576,0.199c-0.116,0.101-0.243,0.252-0.375,0.45
	c-0.3,0.435-0.684,1.061-1.15,1.877c-0.468,0.816-0.96,1.676-1.476,2.576c-0.517,0.899-1,1.768-1.451,2.602
	c-0.45,0.833-0.809,1.5-1.075,2c0,0.201,0.283,0.385,0.851,0.552c0.566,0.167,1.383,0.25,2.451,0.25
	c1.167,0,2.327-0.058,3.478-0.175c1.15-0.118,2.209-0.309,3.176-0.576L60.263,223.351z"/>
<path fill="#909090" stroke="#909090" stroke-width="0.75" stroke-miterlimit="10" d="M91.7,202.288c0,0.468-0.184,1.149-0.55,2.052
	c-0.368,0.899-0.893,1.942-1.577,3.127c-0.684,1.183-1.518,2.45-2.5,3.8c-0.984,1.352-2.101,2.693-3.352,4.029
	c-1.251,1.334-2.627,2.607-4.127,3.826c-1.5,1.217-3.102,2.294-4.803,3.226c-0.3,0.534-0.717,1.251-1.25,2.152
	c-0.535,0.899-1.059,1.851-1.577,2.852c-0.517,1-0.967,1.983-1.35,2.952c-0.385,0.966-0.576,1.784-0.576,2.451
	c0,1.066,0.483,1.599,1.452,1.599c0.833,0,1.7-0.23,2.601-0.698c0.901-0.467,1.759-1.035,2.576-1.701
	c0.817-0.668,1.584-1.377,2.302-2.125c0.717-0.753,1.325-1.428,1.827-2.026c0.232-0.233,0.366-0.293,0.4-0.176
	c0.033,0.118-0.018,0.241-0.151,0.374c-0.6,0.735-1.309,1.518-2.125,2.352c-0.818,0.834-1.685,1.602-2.602,2.302
	c-0.918,0.699-1.876,1.284-2.877,1.751c-1,0.468-2,0.701-3.001,0.701c-0.868,0-1.493-0.21-1.876-0.627
	c-0.384-0.416-0.575-0.926-0.575-1.525c0-0.602,0.259-1.458,0.776-2.576c0.516-1.117,1.125-2.293,1.825-3.526
	c0.7-1.233,1.401-2.403,2.101-3.501c0.7-1.102,1.217-1.935,1.551-2.504c0.568-0.966,1.159-1.975,1.776-3.025
	c0.617-1.051,1.226-2.076,1.825-3.076c0.601-1,1.177-1.961,1.726-2.877c0.552-0.918,1.059-1.725,1.526-2.426
	c0.567-0.868,1.151-1.686,1.751-2.452c0.6-0.768,1.367-1.534,2.301-2.3c1.266-1.068,2.433-1.885,3.502-2.451
	c1.066-0.566,1.783-0.852,2.15-0.852c0.267,0,0.483,0.075,0.651,0.225C91.616,201.762,91.7,201.988,91.7,202.288z M89.448,203.587
	c0-0.531-0.217-0.799-0.65-0.799c-0.167,0-0.35,0.051-0.55,0.149c-0.2,0.101-0.458,0.31-0.775,0.626
	c-0.317,0.316-0.701,0.76-1.151,1.326c-0.45,0.566-1.026,1.301-1.726,2.201c-0.267,0.367-0.642,0.899-1.125,1.601
	c-0.484,0.699-1.101,1.627-1.851,2.776c-0.75,1.15-1.651,2.567-2.702,4.252c-1.051,1.684-2.294,3.678-3.727,5.979
	c2.001-1.133,3.876-2.51,5.628-4.128c1.75-1.616,3.26-3.276,4.527-4.976c1.268-1.701,2.268-3.354,3.002-4.955
	C89.081,206.041,89.448,204.69,89.448,203.587z"/>
<path fill="#909090" stroke="#909090" stroke-width="0.75" stroke-miterlimit="10" d="M99.474,228.352
	c-0.801,1.034-1.719,2.019-2.752,2.952c-1.034,0.934-1.985,1.684-2.852,2.25c-0.667,0.435-1.351,0.768-2.051,1.001
	s-1.335,0.351-1.9,0.351c-0.201,0-0.435-0.018-0.701-0.049c-0.267-0.035-0.509-0.118-0.726-0.25
	c-0.217-0.133-0.399-0.309-0.55-0.526c-0.149-0.216-0.224-0.509-0.224-0.876c0-0.432,0.167-1.026,0.5-1.776
	c0.333-0.748,0.725-1.526,1.176-2.325c0.45-0.8,0.9-1.567,1.351-2.303c0.45-0.73,0.808-1.282,1.075-1.65
	c0.167-0.267,0.458-0.491,0.875-0.675c0.417-0.185,0.691-0.274,0.826-0.274c0.167,0,0.25,0.05,0.25,0.15
	c0,0.066-0.026,0.166-0.075,0.299c-0.05,0.135-0.109,0.233-0.175,0.3c-0.434,0.669-0.875,1.401-1.327,2.201
	c-0.45,0.802-0.859,1.575-1.226,2.327c-0.367,0.751-0.658,1.443-0.875,2.076c-0.217,0.633-0.325,1.135-0.325,1.5
	c0,0.4,0.108,0.693,0.325,0.877c0.217,0.182,0.509,0.273,0.875,0.273c0.667,0,1.401-0.225,2.202-0.676
	c0.8-0.448,1.592-0.991,2.376-1.624c0.783-0.635,1.508-1.302,2.176-2.003c0.667-0.699,1.183-1.299,1.551-1.8
	c0.167-0.167,0.257-0.207,0.274-0.124C99.565,228.062,99.54,228.185,99.474,228.352z M97.223,217.196c0,0.4-0.175,0.8-0.525,1.201
	c-0.35,0.4-0.743,0.599-1.176,0.599c-0.4,0-0.601-0.198-0.601-0.599c0-0.434,0.158-0.851,0.476-1.252
	c0.316-0.4,0.708-0.602,1.175-0.602C97.005,216.544,97.223,216.763,97.223,217.196z"/>
<path fill="#909090" stroke="#909090" stroke-width="0.75" stroke-miterlimit="10" d="M118.684,221.548c0,0.3-0.083,0.602-0.25,0.9
	c-1.668,3.104-3.168,5.846-4.502,8.231c-1.333,2.383-2.601,4.585-3.802,6.603c-1.2,2.018-2.384,3.967-3.552,5.852
	c-1.168,1.886-2.401,3.895-3.702,6.03c-1.067,1.699-2.226,3.292-3.477,4.777c-1.25,1.483-2.635,2.769-4.152,3.852
	c-1.518,1.084-3.168,1.935-4.953,2.55c-1.784,0.618-3.743,0.928-5.878,0.928c-1.566,0-2.858-0.209-3.876-0.626
	s-1.818-0.977-2.401-1.676c-0.583-0.701-0.993-1.501-1.226-2.403c-0.233-0.899-0.351-1.833-0.351-2.799
	c0-0.402,0.034-0.826,0.101-1.276c0.067-0.451,0.15-0.811,0.25-1.075c0.033-0.135,0.1-0.201,0.2-0.201c0.1,0,0.149,0.084,0.149,0.25
	c-0.066,0.233-0.132,0.509-0.2,0.825c-0.066,0.316-0.1,0.658-0.1,1.026c0,1.166,0.25,2.176,0.75,3.026
	c0.5,0.851,1.192,1.552,2.075,2.101c0.885,0.55,1.927,0.967,3.127,1.251c1.202,0.284,2.485,0.425,3.852,0.425
	c1.434,0,2.877-0.232,4.327-0.698c1.451-0.469,2.894-1.244,4.327-2.328c1.436-1.083,2.844-2.492,4.228-4.228
	c1.384-1.733,2.743-3.869,4.077-6.402c0.867-1.601,1.784-3.302,2.751-5.104c0.967-1.8,1.901-3.527,2.802-5.178
	c0.9-1.652,1.709-3.133,2.426-4.451c0.717-1.317,1.242-2.277,1.577-2.877c-0.668,0.899-1.319,1.75-1.952,2.552
	c-0.634,0.8-1.226,1.501-1.776,2.101c-0.55,0.602-1.075,1.075-1.575,1.426s-0.951,0.525-1.351,0.525c-0.3,0-0.55-0.1-0.75-0.301
	c-0.201-0.199-0.3-0.518-0.3-0.951c0-0.5,0.207-1.207,0.625-2.125c0.417-0.916,0.966-1.877,1.651-2.877
	c0.683-1,1.458-1.951,2.326-2.852c0.868-0.901,1.751-1.566,2.651-2c0.8-0.402,1.601-0.601,2.401-0.601
	c0.233,0,0.417,0.017,0.55,0.049c0.266-0.466,0.542-0.932,0.825-1.399c0.283-0.469,0.576-0.969,0.876-1.501
	c0.233-0.434,0.45-0.649,0.649-0.649c0.133,0,0.258,0.149,0.375,0.449C118.625,220.997,118.684,221.281,118.684,221.548z
	 M115.482,224.5c-0.101-0.034-0.233-0.052-0.399-0.052c-0.135,0-0.25,0-0.351,0c-0.468,0-0.91,0.043-1.327,0.127
	c-0.417,0.083-0.774,0.258-1.075,0.525c-0.834,0.699-1.551,1.483-2.151,2.352c-0.6,0.867-1.1,1.719-1.5,2.552
	c-0.401,0.834-0.693,1.593-0.875,2.274c-0.184,0.684-0.276,1.176-0.276,1.477c0,0.368,0.101,0.55,0.3,0.55
	c0.2,0,0.601-0.282,1.202-0.851c0.599-0.566,1.275-1.316,2.026-2.251c0.75-0.935,1.525-1.983,2.326-3.153
	C114.181,226.886,114.882,225.701,115.482,224.5z"/>
<path fill="#909090" stroke="#909090" stroke-width="0.75" stroke-miterlimit="10" d="M160.977,201.937
	c0,0.535-0.025,0.935-0.074,1.202c-0.05,0.267-0.102,0.448-0.15,0.552c-0.051,0.098-0.1,0.123-0.149,0.072
	c-0.052-0.049-0.077-0.107-0.077-0.176c0-0.23-0.058-0.549-0.173-0.949c-0.118-0.398-0.351-0.79-0.701-1.175
	c-0.351-0.383-0.843-0.718-1.475-1.001c-0.635-0.283-1.452-0.425-2.454-0.425c-0.866,0-1.759,0.124-2.676,0.376
	c-0.917,0.248-1.909,0.733-2.976,1.449c-1.069,0.719-2.21,1.71-3.426,2.978c-1.218,1.268-2.543,2.909-3.978,4.927
	c-1.435,2.018-2.994,4.47-4.678,7.355c-1.685,2.885-3.527,6.295-5.528,10.229c0.233-0.201,0.601-0.5,1.101-0.899
	c0.5-0.4,1.051-0.803,1.65-1.201c0.601-0.4,1.184-0.751,1.751-1.051c0.566-0.301,1.051-0.45,1.451-0.45
	c0.299,0,0.45,0.117,0.45,0.349c0,0.201-0.151,0.502-0.45,0.902c-0.268,0.398-0.618,0.951-1.051,1.649
	c-0.434,0.701-0.858,1.451-1.275,2.251c-0.417,0.801-0.776,1.586-1.076,2.352c-0.299,0.77-0.45,1.385-0.45,1.853
	c0,0.532,0.132,0.935,0.401,1.199c0.266,0.267,0.632,0.399,1.1,0.399c0.767,0,1.851-0.5,3.252-1.5c1.401-1,3.002-2.699,4.804-5.103
	c0.066-0.065,0.132-0.101,0.199-0.101s0.101,0.068,0.101,0.201c-0.633,0.9-1.377,1.802-2.227,2.701
	c-0.851,0.9-1.718,1.717-2.601,2.45c-0.885,0.735-1.769,1.327-2.651,1.778c-0.885,0.449-1.694,0.676-2.427,0.676
	c-0.567,0-1.018-0.16-1.351-0.477c-0.333-0.316-0.5-0.76-0.5-1.326c0-0.533,0.184-1.218,0.55-2.051
	c0.367-0.834,0.776-1.676,1.226-2.527c0.45-0.851,0.858-1.633,1.226-2.352c0.367-0.715,0.55-1.225,0.55-1.523
	c0-0.169-0.05-0.252-0.15-0.252c-0.299,0-0.842,0.284-1.625,0.851c-0.785,0.568-1.759,1.635-2.926,3.202
	c-0.468,0.833-0.951,1.701-1.451,2.602c-0.5,0.899-0.934,1.701-1.301,2.399c-0.267,0.534-0.517,0.802-0.75,0.802
	c-0.167,0-0.384-0.043-0.651-0.126c-0.268-0.083-0.4-0.241-0.4-0.475c0-0.167,0.05-0.351,0.149-0.55
	c1.401-2.535,2.768-4.929,4.103-7.18c1.334-2.25,2.685-4.461,4.051-6.628c1.602-2.501,3.26-5.053,4.979-7.654
	c1.717-2.601,3.477-4.97,5.278-7.103c1.802-2.135,3.627-3.877,5.479-5.229c1.851-1.351,3.708-2.025,5.576-2.025
	c0.468,0,0.951,0.057,1.452,0.175c0.5,0.118,0.977,0.308,1.425,0.575c0.451,0.268,0.817,0.643,1.101,1.126
	C160.836,200.546,160.977,201.172,160.977,201.937z"/>
<path fill="#909090" stroke="#909090" stroke-width="0.75" stroke-miterlimit="10" d="M163.048,216.646
	c-0.267,0.068-0.566,0.191-0.899,0.375c-0.334,0.185-0.584,0.409-0.751,0.676c-0.767,1.066-1.509,2.185-2.228,3.352
	c-0.718,1.168-1.408,2.334-2.075,3.502h6.203c0.101,0.068,0.149,0.135,0.149,0.2c0,0.066-0.031,0.118-0.098,0.149
	c-0.27,0-0.67,0.009-1.201,0.025c-0.535,0.018-1.119,0.041-1.751,0.076c-0.635,0.033-1.284,0.065-1.952,0.1
	c-0.666,0.034-1.25,0.066-1.75,0.101c-0.934,1.667-1.652,3.085-2.152,4.251c-0.5,1.168-0.75,2.186-0.75,3.053
	c0,1.199,0.552,1.8,1.65,1.8c0.534,0,1.144-0.142,1.827-0.425c0.682-0.283,1.409-0.659,2.176-1.125c0.101-0.101,0.2-0.092,0.3,0.023
	c0.1,0.117,0.065,0.209-0.1,0.275c-1.135,0.733-2.186,1.268-3.152,1.602c-0.968,0.334-1.951,0.5-2.952,0.5
	c-0.534,0-1-0.158-1.4-0.475c-0.4-0.316-0.601-0.859-0.601-1.627c0-0.666,0.299-1.649,0.9-2.951c0.601-1.3,1.483-2.9,2.652-4.803
	c-0.402,0.033-0.894,0.076-1.477,0.126c-0.583,0.049-0.925,0.075-1.026,0.075c-0.167,0-0.25-0.066-0.25-0.201
	c0.135-0.233,0.351-0.467,0.652-0.699l2.55-0.051c0.302-0.5,0.635-1.059,1-1.676c0.368-0.616,0.735-1.234,1.101-1.852
	c0.367-0.615,0.741-1.217,1.126-1.8c0.383-0.583,0.725-1.126,1.026-1.626c0.365-0.167,0.874-0.383,1.525-0.65
	c0.65-0.268,1.225-0.482,1.726-0.65c0.066,0,0.118,0.041,0.149,0.125C163.231,216.504,163.18,216.579,163.048,216.646z"/>
<path fill="#909090" stroke="#909090" stroke-width="0.75" stroke-miterlimit="10" d="M189.881,214.595
	c-0.132,0.334-0.29,0.768-0.474,1.3c-0.185,0.534-0.325,0.985-0.426,1.351c-0.133,0.068-0.25,0.018-0.351-0.148
	c0.101-0.201,0.151-0.451,0.151-0.751c0-0.601-0.292-1.167-0.876-1.701c-0.583-0.532-1.509-0.802-2.776-0.802
	c-1.334,0-2.42,0.394-3.251,1.178c-0.834,0.782-1.251,1.825-1.251,3.125c0,1,0.233,1.935,0.699,2.803
	c0.468,0.867,0.983,1.669,1.552,2.402c0.432,0.566,0.791,1.041,1.075,1.424c0.282,0.384,0.509,0.734,0.676,1.051
	c0.166,0.316,0.282,0.617,0.351,0.9c0.066,0.283,0.101,0.626,0.101,1.025c0,0.701-0.161,1.385-0.478,2.053
	c-0.316,0.666-0.732,1.284-1.25,1.851s-1.084,1.075-1.701,1.524c-0.616,0.45-1.225,0.81-1.825,1.076
	c-1.501,0.668-3.168,1.001-5.002,1.001c-0.77,0-1.526-0.068-2.276-0.201c-0.75-0.132-1.443-0.351-2.078-0.649
	c-0.166-0.101-0.316-0.192-0.448-0.275c-0.135-0.082-0.218-0.176-0.251-0.276c0.133-0.566,0.291-1.208,0.475-1.926
	c0.185-0.716,0.343-1.308,0.475-1.774c0-0.066,0.052-0.1,0.152-0.1c0.099,0,0.149,0.083,0.149,0.25
	c-0.101,0.299-0.149,0.6-0.149,0.899c0,0.935,0.383,1.759,1.149,2.478c0.768,0.716,1.952,1.075,3.553,1.075
	c0.601,0,1.208-0.058,1.825-0.176c0.616-0.117,1.176-0.292,1.676-0.525c1.035-0.466,1.909-1.124,2.627-1.976
	c0.717-0.85,1.075-1.859,1.075-3.026c0-0.568-0.132-1.144-0.399-1.728c-0.268-0.58-0.784-1.356-1.552-2.324
	c-0.667-0.869-1.176-1.634-1.526-2.303c-0.351-0.667-0.523-1.432-0.523-2.3s0.19-1.733,0.575-2.604
	c0.382-0.866,0.856-1.633,1.426-2.3c0.198-0.232,0.474-0.509,0.824-0.825s0.768-0.608,1.251-0.876
	c0.482-0.266,1.052-0.5,1.701-0.699c0.649-0.201,1.374-0.301,2.176-0.301c0.532,0,1.052,0.074,1.55,0.224
	c0.502,0.149,0.951,0.442,1.351,0.876C189.8,214.127,189.881,214.362,189.881,214.595z"/>
<path fill="#909090" stroke="#909090" stroke-width="0.75" stroke-miterlimit="10" d="M208.812,228.352
	c-0.799,1.034-1.719,2.019-2.751,2.952c-1.034,0.934-1.985,1.684-2.851,2.25c-0.67,0.435-1.352,0.768-2.053,1.001
	s-1.334,0.351-1.9,0.351c-0.2,0-0.434-0.018-0.7-0.049c-0.268-0.035-0.509-0.118-0.728-0.25c-0.216-0.133-0.399-0.309-0.549-0.526
	c-0.149-0.216-0.225-0.509-0.225-0.876c0-0.432,0.167-1.026,0.5-1.776c0.334-0.748,0.725-1.526,1.176-2.325
	c0.449-0.8,0.9-1.567,1.351-2.303c0.449-0.73,0.809-1.282,1.075-1.65c0.167-0.267,0.458-0.491,0.877-0.675
	c0.416-0.185,0.69-0.274,0.825-0.274c0.166,0,0.25,0.05,0.25,0.15c0,0.066-0.026,0.166-0.075,0.299
	c-0.052,0.135-0.109,0.233-0.175,0.3c-0.435,0.669-0.877,1.401-1.325,2.201c-0.451,0.802-0.862,1.575-1.228,2.327
	c-0.367,0.751-0.658,1.443-0.876,2.076c-0.216,0.633-0.325,1.135-0.325,1.5c0,0.4,0.109,0.693,0.325,0.877
	c0.218,0.182,0.509,0.273,0.876,0.273c0.667,0,1.4-0.225,2.202-0.676c0.799-0.448,1.592-0.991,2.376-1.624
	c0.783-0.635,1.508-1.302,2.177-2.003c0.666-0.699,1.182-1.299,1.549-1.8c0.167-0.167,0.259-0.207,0.276-0.124
	C208.904,228.062,208.879,228.185,208.812,228.352z M206.56,217.196c0,0.4-0.173,0.8-0.523,1.201
	c-0.351,0.4-0.741,0.599-1.176,0.599c-0.399,0-0.601-0.198-0.601-0.599c0-0.434,0.158-0.851,0.475-1.252
	c0.316-0.4,0.71-0.602,1.176-0.602C206.344,216.544,206.56,216.763,206.56,217.196z"/>
<path fill="#909090" stroke="#909090" stroke-width="0.75" stroke-miterlimit="10" d="M228.043,221.548c0,0.3-0.085,0.602-0.25,0.9
	c-1.669,3.104-3.17,5.846-4.503,8.231c-1.334,2.383-2.602,4.585-3.803,6.603c-1.199,2.018-2.384,3.967-3.551,5.852
	c-1.169,1.886-2.402,3.895-3.702,6.03c-1.066,1.699-2.227,3.292-3.478,4.777c-1.25,1.483-2.633,2.769-4.152,3.852
	c-1.516,1.084-3.168,1.935-4.953,2.55c-1.782,0.618-3.742,0.928-5.878,0.928c-1.566,0-2.857-0.209-3.877-0.626
	c-1.018-0.417-1.817-0.977-2.4-1.676c-0.584-0.701-0.992-1.501-1.225-2.403c-0.235-0.899-0.351-1.833-0.351-2.799
	c0-0.402,0.034-0.826,0.101-1.276c0.065-0.451,0.149-0.811,0.25-1.075c0.034-0.135,0.098-0.201,0.198-0.201s0.152,0.084,0.152,0.25
	c-0.068,0.233-0.135,0.509-0.201,0.825s-0.101,0.658-0.101,1.026c0,1.166,0.25,2.176,0.75,3.026s1.193,1.552,2.078,2.101
	c0.883,0.55,1.926,0.967,3.125,1.251c1.201,0.284,2.485,0.425,3.852,0.425c1.434,0,2.877-0.232,4.328-0.698
	c1.449-0.469,2.895-1.244,4.326-2.328c1.435-1.083,2.845-2.492,4.228-4.228c1.386-1.733,2.745-3.869,4.079-6.402
	c0.865-1.601,1.782-3.302,2.75-5.104c0.967-1.8,1.9-3.527,2.801-5.178c0.901-1.652,1.71-3.133,2.428-4.451
	c0.716-1.317,1.242-2.277,1.575-2.877c-0.669,0.899-1.318,1.75-1.951,2.552c-0.633,0.8-1.225,1.501-1.776,2.101
	c-0.549,0.602-1.075,1.075-1.575,1.426s-0.951,0.525-1.351,0.525c-0.3,0-0.55-0.1-0.751-0.301c-0.2-0.199-0.301-0.518-0.301-0.951
	c0-0.5,0.209-1.207,0.626-2.125c0.417-0.916,0.966-1.877,1.652-2.877c0.682-1,1.458-1.951,2.325-2.852
	c0.866-0.901,1.751-1.566,2.65-2c0.802-0.402,1.602-0.601,2.403-0.601c0.232,0,0.416,0.017,0.549,0.049
	c0.268-0.466,0.543-0.932,0.825-1.399c0.284-0.469,0.575-0.969,0.876-1.501c0.233-0.434,0.451-0.649,0.65-0.649
	c0.132,0,0.258,0.149,0.376,0.449C227.983,220.997,228.043,221.281,228.043,221.548z M224.842,224.5
	c-0.101-0.034-0.235-0.052-0.4-0.052c-0.135,0-0.252,0-0.351,0c-0.468,0-0.91,0.043-1.327,0.127
	c-0.417,0.083-0.773,0.258-1.075,0.525c-0.833,0.699-1.55,1.483-2.15,2.352c-0.601,0.867-1.101,1.719-1.5,2.552
	c-0.402,0.834-0.692,1.593-0.877,2.274c-0.184,0.684-0.275,1.176-0.275,1.477c0,0.368,0.101,0.55,0.302,0.55
	c0.2,0,0.601-0.282,1.201-0.851c0.599-0.566,1.273-1.316,2.024-2.251c0.752-0.935,1.525-1.983,2.327-3.153
	C223.54,226.886,224.241,225.701,224.842,224.5z"/>
<path fill="#909090" stroke="#909090" stroke-width="0.75" stroke-miterlimit="10" d="M270.335,201.937
	c0,0.535-0.023,0.935-0.075,1.202c-0.049,0.267-0.101,0.448-0.149,0.552c-0.051,0.098-0.101,0.123-0.149,0.072
	c-0.052-0.049-0.075-0.107-0.075-0.176c0-0.23-0.06-0.549-0.175-0.949c-0.118-0.398-0.351-0.79-0.701-1.175
	c-0.351-0.383-0.842-0.718-1.475-1.001c-0.635-0.283-1.451-0.425-2.452-0.425c-0.867,0-1.761,0.124-2.676,0.376
	c-0.919,0.248-1.911,0.733-2.978,1.449c-1.066,0.719-2.21,1.71-3.427,2.978c-1.218,1.268-2.543,2.909-3.978,4.927
	s-2.994,4.47-4.679,7.355c-1.683,2.885-3.524,6.295-5.527,10.229c0.232-0.201,0.601-0.5,1.101-0.899
	c0.5-0.4,1.052-0.803,1.652-1.201c0.599-0.4,1.182-0.751,1.751-1.051c0.566-0.301,1.051-0.45,1.451-0.45
	c0.299,0,0.448,0.117,0.448,0.349c0,0.201-0.149,0.502-0.448,0.902c-0.27,0.398-0.618,0.951-1.052,1.649
	c-0.434,0.701-0.859,1.451-1.276,2.251c-0.417,0.801-0.773,1.586-1.075,2.352c-0.299,0.77-0.451,1.385-0.451,1.853
	c0,0.532,0.135,0.935,0.402,1.199c0.265,0.267,0.633,0.399,1.101,0.399c0.766,0,1.852-0.5,3.251-1.5c1.4-1,3.001-2.699,4.803-5.103
	c0.066-0.065,0.133-0.101,0.199-0.101s0.101,0.068,0.101,0.201c-0.633,0.9-1.375,1.802-2.226,2.701
	c-0.851,0.9-1.719,1.717-2.601,2.45c-0.886,0.735-1.771,1.327-2.653,1.778c-0.885,0.449-1.692,0.676-2.426,0.676
	c-0.568,0-1.018-0.16-1.351-0.477c-0.334-0.316-0.5-0.76-0.5-1.326c0-0.533,0.184-1.218,0.549-2.051
	c0.368-0.834,0.776-1.676,1.227-2.527c0.449-0.851,0.857-1.633,1.228-2.352c0.365-0.715,0.549-1.225,0.549-1.523
	c0-0.169-0.051-0.252-0.149-0.252c-0.302,0-0.844,0.284-1.627,0.851c-0.784,0.568-1.759,1.635-2.928,3.202
	c-0.466,0.833-0.949,1.701-1.449,2.602c-0.5,0.899-0.935,1.701-1.3,2.399c-0.267,0.534-0.52,0.802-0.752,0.802
	c-0.167,0-0.383-0.043-0.65-0.126c-0.267-0.083-0.399-0.241-0.399-0.475c0-0.167,0.049-0.351,0.149-0.55
	c1.402-2.535,2.769-4.929,4.102-7.18c1.334-2.25,2.686-4.461,4.053-6.628c1.602-2.501,3.26-5.053,4.979-7.654
	c1.716-2.601,3.478-4.97,5.277-7.103c1.802-2.135,3.627-3.877,5.479-5.229c1.851-1.351,3.71-2.025,5.578-2.025
	c0.466,0,0.951,0.057,1.449,0.175c0.503,0.118,0.978,0.308,1.426,0.575c0.451,0.268,0.816,0.643,1.101,1.126
	S270.335,201.172,270.335,201.937z"/>
<path fill="#909090" stroke="#909090" stroke-width="0.75" stroke-miterlimit="10" d="M272.406,216.646
	c-0.268,0.068-0.566,0.191-0.9,0.375c-0.333,0.185-0.583,0.409-0.75,0.676c-0.768,1.066-1.509,2.185-2.228,3.352
	c-0.716,1.168-1.408,2.334-2.075,3.502h6.203c0.101,0.068,0.149,0.135,0.149,0.2c0,0.066-0.032,0.118-0.099,0.149
	c-0.269,0-0.669,0.009-1.201,0.025c-0.534,0.018-1.117,0.041-1.752,0.076c-0.633,0.033-1.283,0.065-1.95,0.1
	c-0.666,0.034-1.25,0.066-1.75,0.101c-0.935,1.667-1.652,3.085-2.152,4.251c-0.5,1.168-0.75,2.186-0.75,3.053
	c0,1.199,0.551,1.8,1.649,1.8c0.534,0,1.144-0.142,1.828-0.425c0.682-0.283,1.408-0.659,2.176-1.125
	c0.101-0.101,0.201-0.092,0.299,0.023c0.101,0.117,0.066,0.209-0.098,0.275c-1.136,0.733-2.185,1.268-3.153,1.602
	c-0.968,0.334-1.951,0.5-2.952,0.5c-0.532,0-1-0.158-1.399-0.475s-0.601-0.859-0.601-1.627c0-0.666,0.299-1.649,0.899-2.951
	c0.601-1.3,1.483-2.9,2.653-4.803c-0.402,0.033-0.894,0.076-1.478,0.126c-0.583,0.049-0.923,0.075-1.023,0.075
	c-0.169,0-0.25-0.066-0.25-0.201c0.132-0.233,0.351-0.467,0.649-0.699l2.55-0.051c0.302-0.5,0.635-1.059,1.003-1.676
	c0.365-0.616,0.73-1.234,1.101-1.852c0.365-0.615,0.739-1.217,1.124-1.8c0.383-0.583,0.725-1.126,1.026-1.626
	c0.365-0.167,0.874-0.383,1.526-0.65c0.649-0.268,1.225-0.482,1.725-0.65c0.066,0,0.117,0.041,0.149,0.125
	C272.59,216.504,272.539,216.579,272.406,216.646z"/>
<g>
	<path fill="#FF3333" d="M173.52,282.11c-0.259-0.104-0.687-0.234-1.276-0.234c-1.284,0.004-3.366,0.596-5.984,3.812v-0.002
		c-1.244,1.543-2.6,3.693-4.014,6.633c3.133,0.613,4.949,1.78,5.95,2.967c0.479,0.575,0.765,1.137,0.937,1.62
		c2.949-3.071,4.706-7.21,4.706-11.606C173.836,284.246,173.727,283.18,173.52,282.11z"/>
	<path fill="#FF3333" d="M162.567,269.442c-0.192,0.156-0.455,0.403-0.707,0.795c-0.39,0.599-0.756,1.5-0.756,2.888
		c0,1.131,0.248,2.584,0.959,4.429c0.7,1.823,1.885,4.049,3.693,6.692c2.554-2.902,4.857-3.704,6.486-3.7
		c0.332,0,0.627,0.034,0.892,0.084C171.59,275.261,167.564,271.192,162.567,269.442z"/>
	<path fill="#FF3333" d="M168.034,297.958c-0.055-0.385-0.236-1.073-0.854-1.811c-0.835-0.987-2.514-2.129-5.954-2.661l-0.014-0.002
		l0.014,0.002c-1.211-0.19-2.625-0.302-4.289-0.302c-1.037,0-2.194,0.054-3.434,0.15c0.555,1.624,0.797,3.007,0.797,4.157
		c0.001,1.624-0.45,2.807-0.976,3.6c-0.117,0.179-0.239,0.335-0.357,0.474c1.307,0.327,2.668,0.507,4.054,0.507
		c1.148,0,2.312-0.119,3.482-0.365h0.002C163.396,301.1,165.946,299.769,168.034,297.958z"/>
	<path fill="#FF3333" d="M146.06,272.607c0.054,0.383,0.236,1.077,0.854,1.823c0.836,1.005,2.503,2.155,5.934,2.689l0,0
		c1.188,0.19,2.583,0.299,4.224,0.299c1.055,0,2.23-0.056,3.491-0.153c-0.548-1.618-0.786-2.995-0.786-4.143
		c0-1.625,0.443-2.811,0.968-3.612c0.128-0.19,0.252-0.357,0.38-0.507c-1.308-0.331-2.67-0.509-4.059-0.509
		c-1.148,0-2.312,0.117-3.482,0.363C150.691,269.466,148.144,270.795,146.06,272.607z"/>
	<path fill="#FF3333" d="M140.575,288.461c0.265,0.104,0.688,0.233,1.275,0.233c1.291-0.007,3.384-0.599,6.007-3.839l0.002-0.005
		c1.244-1.525,2.588-3.654,3.981-6.565c-3.134-0.62-4.948-1.798-5.948-3.001c-0.479-0.582-0.761-1.14-0.932-1.627
		c-2.947,3.073-4.705,7.214-4.705,11.612C140.261,286.323,140.371,287.391,140.575,288.461z"/>
	<path fill="#FF3333" d="M151.531,301.121c0.188-0.149,0.441-0.389,0.687-0.761c0.387-0.59,0.752-1.485,0.754-2.871
		c0-1.143-0.256-2.622-0.991-4.503c-0.703-1.812-1.884-4.022-3.664-6.637c-2.537,2.881-4.837,3.679-6.461,3.676
		c-0.336,0-0.627-0.036-0.894-0.083C142.514,295.306,146.538,299.379,151.531,301.121z"/>
</g>
<path fill="#FFFFFF" d="M214.607,276.19"/>
<g>
	<path fill="#909090" d="M66.452,288.019c22.405,0,44.807,0,67.213,0c2.229,0,2.229-3.283,0-3.283c-22.406,0-44.808,0-67.213,0
		C64.223,284.735,64.223,288.019,66.452,288.019L66.452,288.019z"/>
	<path fill="#909090" d="M179.822,288.019c22.492,0,44.982,0,67.475,0c2.238,0,2.238-3.283,0-3.283c-22.492,0-44.982,0-67.475,0
		C177.584,284.735,177.584,288.019,179.822,288.019L179.822,288.019z"/>
	<path fill="none" stroke="#909090" stroke-width="3" stroke-miterlimit="10" d="M135.021,284.735
		c0,12.081,9.776,21.855,21.857,21.855"/>
	<path fill="none" stroke="#909090" stroke-width="3" stroke-miterlimit="10" d="M178.734,284.735
		c0,12.081-9.776,21.855-21.856,21.855"/>
</g>
<g>
	<path fill="#909090" d="M72.188,317.111c0-4.758,10.342-23.409,6.612-23.409H65.577C61.849,293.702,72.188,312.354,72.188,317.111"
		/>
	<path fill="#909090" d="M79.626,267.519c0-1.054-1.47-1.906-3.283-1.906h-8.278c-1.812,0-3.283,0.853-3.283,1.906v10.313
		c0,1.051,1.471,1.904,3.283,1.904h8.278c1.813,0,3.283-0.854,3.283-1.904V267.519z"/>
	<path fill="#909090" d="M37.266,269.129c-0.16,0-0.318,0.004-0.479,0.007l-5.534,7.52c2.006,0.076,4.011,0.128,6.013,0.13
		c0.282,0,0.564-0.009,0.845-0.011l5.527-7.511C41.513,269.178,39.391,269.125,37.266,269.129z"/>
	<path fill="#909090" d="M18.11,269.956c-5.292,0.592-10.583,1.415-15.873,3.001c5.29,1.584,10.581,2.407,15.873,3.001
		c1.78,0.19,3.563,0.331,5.344,0.455l5.286-7.184C25.196,269.35,21.652,269.578,18.11,269.956z"/>
	<path fill="#909090" d="M33.482,269.163l-5.448,7.404c0.607,0.032,1.212,0.051,1.817,0.075l5.521-7.503
		C34.744,269.142,34.113,269.152,33.482,269.163z"/>
	<path fill="#909090" d="M30.161,269.217l-5.31,7.216c0.595,0.041,1.19,0.083,1.787,0.115l5.432-7.381
		C31.433,269.181,30.798,269.197,30.161,269.217z"/>
	<path fill="#909090" d="M56.424,269.945c-1.665-0.177-3.328-0.314-4.993-0.432l-5.271,7.163c3.422-0.12,6.842-0.345,10.264-0.708
		c5.29-0.59,10.58-1.417,15.873-3.012C67.004,271.36,61.714,270.535,56.424,269.945z"/>
	<path fill="#909090" d="M48.248,269.379l-5.42,7.368c0.637-0.016,1.273-0.036,1.912-0.058l5.295-7.195
		C49.438,269.454,48.845,269.413,48.248,269.379z"/>
	<path fill="#909090" d="M45.04,269.276l-5.515,7.496c0.628-0.004,1.259-0.011,1.888-0.023l5.438-7.39
		C46.248,269.325,45.645,269.302,45.04,269.276z"/>
	<path fill="#909090" d="M107.11,269.129c-0.16,0-0.318,0.004-0.479,0.007l-5.534,7.52c2.005,0.076,4.01,0.128,6.013,0.13
		c0.282,0,0.564-0.009,0.845-0.011l5.527-7.511C111.357,269.178,109.235,269.125,107.11,269.129z"/>
	<path fill="#909090" d="M87.955,269.956c-5.293,0.592-10.583,1.415-15.873,3.001c5.29,1.584,10.58,2.407,15.873,3.001
		c1.78,0.19,3.562,0.331,5.343,0.455l5.286-7.184C95.04,269.35,91.496,269.578,87.955,269.956z"/>
	<path fill="#909090" d="M103.327,269.163l-5.448,7.404c0.606,0.032,1.212,0.051,1.816,0.075l5.521-7.503
		C104.588,269.142,103.958,269.152,103.327,269.163z"/>
	<path fill="#909090" d="M100.006,269.217l-5.31,7.216c0.594,0.041,1.19,0.083,1.787,0.115l5.431-7.381
		C101.277,269.181,100.643,269.197,100.006,269.217z"/>
	<path fill="#909090" d="M126.269,269.945c-1.665-0.177-3.328-0.314-4.993-0.432l-5.271,7.163c3.423-0.12,6.843-0.345,10.265-0.708
		c5.29-0.59,10.58-1.417,15.872-3.012C136.849,271.36,131.559,270.535,126.269,269.945z"/>
	<path fill="#909090" d="M118.093,269.379l-5.421,7.368c0.637-0.016,1.274-0.036,1.913-0.058l5.295-7.195
		C119.283,269.454,118.689,269.413,118.093,269.379z"/>
	<path fill="#909090" d="M114.885,269.276l-5.515,7.496c0.628-0.004,1.259-0.011,1.887-0.023l5.438-7.39
		C116.092,269.325,115.489,269.302,114.885,269.276z"/>
</g>
<g>
	<path fill="#FFFFFF" d="M218.717,269.027"/>
	<path fill="#909090" d="M241.903,317.111c0-4.758,10.342-23.409,6.612-23.409h-13.224
		C231.563,293.702,241.903,312.354,241.903,317.111"/>
	<path fill="#909090" d="M249.341,267.519c0-1.054-1.47-1.906-3.283-1.906h-8.278c-1.812,0-3.283,0.853-3.283,1.906v10.313
		c0,1.051,1.471,1.904,3.283,1.904h8.278c1.813,0,3.283-0.854,3.283-1.904V267.519z"/>
	<path fill="#909090" d="M206.981,269.129c-0.16,0-0.318,0.004-0.479,0.007l-5.535,7.52c2.006,0.076,4.011,0.128,6.014,0.13
		c0.281,0,0.564-0.009,0.844-0.011l5.527-7.511C211.228,269.178,209.106,269.125,206.981,269.129z"/>
	<path fill="#909090" d="M187.825,269.956c-5.292,0.592-10.582,1.415-15.873,3.001c5.291,1.584,10.581,2.407,15.873,3.001
		c1.781,0.19,3.563,0.331,5.344,0.455l5.286-7.184C194.911,269.35,191.367,269.578,187.825,269.956z"/>
	<path fill="#909090" d="M203.198,269.163l-5.449,7.404c0.607,0.032,1.213,0.051,1.817,0.075l5.521-7.503
		C204.459,269.142,203.829,269.152,203.198,269.163z"/>
	<path fill="#909090" d="M199.876,269.217l-5.309,7.216c0.594,0.041,1.189,0.083,1.786,0.115l5.432-7.381
		C201.147,269.181,200.513,269.197,199.876,269.217z"/>
	<path fill="#909090" d="M226.14,269.945c-1.666-0.177-3.328-0.314-4.994-0.432l-5.271,7.163c3.423-0.12,6.843-0.345,10.265-0.708
		c5.289-0.59,10.58-1.417,15.872-3.012C236.72,271.36,231.429,270.535,226.14,269.945z"/>
	<path fill="#909090" d="M217.964,269.379l-5.421,7.368c0.637-0.016,1.274-0.036,1.913-0.058l5.295-7.195
		C219.153,269.454,218.56,269.413,217.964,269.379z"/>
	<path fill="#909090" d="M214.755,269.276l-5.515,7.496c0.628-0.004,1.259-0.011,1.888-0.023l5.438-7.39
		C215.963,269.325,215.36,269.302,214.755,269.276z"/>
	<path fill="#909090" d="M276.825,269.129c-0.16,0-0.318,0.004-0.479,0.007l-5.533,7.52c2.004,0.076,4.01,0.128,6.012,0.13
		c0.283,0,0.564-0.009,0.845-0.011l5.527-7.511C281.073,269.178,278.95,269.125,276.825,269.129z"/>
	<path fill="#909090" d="M257.67,269.956c-5.292,0.592-10.583,1.415-15.873,3.001c5.29,1.584,10.581,2.407,15.873,3.001
		c1.78,0.19,3.563,0.331,5.343,0.455l5.287-7.184C264.755,269.35,261.212,269.578,257.67,269.956z"/>
	<path fill="#909090" d="M273.042,269.163l-5.448,7.404c0.606,0.032,1.212,0.051,1.817,0.075l5.521-7.503
		C274.304,269.142,273.673,269.152,273.042,269.163z"/>
	<path fill="#909090" d="M269.721,269.217l-5.31,7.216c0.594,0.041,1.19,0.083,1.787,0.115l5.432-7.381
		C270.993,269.181,270.357,269.197,269.721,269.217z"/>
	<path fill="#909090" d="M295.983,269.945c-1.665-0.177-3.328-0.314-4.993-0.432l-5.271,7.163c3.422-0.12,6.842-0.345,10.264-0.708
		c5.291-0.59,10.58-1.417,15.873-3.012C306.563,271.36,301.274,270.535,295.983,269.945z"/>
	<path fill="#909090" d="M287.808,269.379l-5.42,7.368c0.637-0.016,1.273-0.036,1.912-0.058l5.295-7.195
		C288.999,269.454,288.404,269.413,287.808,269.379z"/>
	<path fill="#909090" d="M284.6,269.276l-5.515,7.496c0.629-0.004,1.259-0.011,1.887-0.023l5.438-7.39
		C285.808,269.325,285.204,269.302,284.6,269.276z"/>
</g>
<g>
	<path fill="#0A1A9C" d="M25.927,152.306l10.801-19.763h3.524l10.993,19.763h-3.639l-2.528-4.865H31.711l-2.528,4.865H25.927z
		 M33.09,144.914h10.648l-5.324-10.112L33.09,144.914z"/>
	<path fill="#0A1A9C" d="M74.418,152.306l-10.802-19.763h3.562l8.734,16.469l8.35-16.469h3.255l-10.342,19.763H74.418z"/>
	<path fill="#0A1A9C" d="M103.758,152.306v-19.763h3.293v19.763H103.758z"/>
	<path fill="#0A1A9C" d="M123.292,152.306l10.801-19.763h3.523l10.993,19.763h-3.639l-2.527-4.865h-13.368l-2.528,4.865H123.292z
		 M130.455,144.914h10.648l-5.324-10.112L130.455,144.914z"/>
	<path fill="#0A1A9C" d="M172.513,135.224v17.082h-3.294v-17.082h-9.041v-2.681h21.412v2.681H172.513z"/>
	<path fill="#0A1A9C" d="M196.986,152.306v-19.763h3.296v19.763H196.986z"/>
	<path fill="#0A1A9C" d="M220.122,137.215c0-1.812,0.325-3.046,0.977-3.697c0.654-0.649,1.875-0.975,3.666-0.975h13.696
		c1.791,0,3.006,0.325,3.645,0.975c0.64,0.651,0.96,1.885,0.96,3.697v10.418c0,1.812-0.32,3.046-0.96,3.696
		c-0.639,0.651-1.854,0.977-3.645,0.977h-13.696c-1.791,0-3.012-0.325-3.666-0.977c-0.651-0.65-0.977-1.884-0.977-3.696V137.215z
		 M223.416,149.548h16.355v-14.363h-16.355V149.548z"/>
	<path fill="#0A1A9C" d="M262.905,152.306v-19.763h2.069l14.789,13.214c0.714,0.639,1.468,1.468,2.259,2.49
		c-0.207-1.228-0.31-2.848-0.31-4.865v-10.839h3.064v19.763h-1.838l-15.208-13.75c-0.562-0.511-0.881-0.804-0.958-0.881
		c-0.408-0.408-0.752-0.855-1.034-1.34c0.154,1.173,0.231,2.616,0.231,4.328v11.643H262.905z"/>
	<path fill="#0A1A9C" stroke="#0A1A9C" stroke-width="0.75" stroke-miterlimit="10" d="M60.263,33.351
		c0,0.066-0.05,0.225-0.151,0.475c-0.1,0.25-0.233,0.425-0.399,0.525c-0.368,0-0.826,0.008-1.375,0.023
		c-0.552,0.018-1.126,0.034-1.726,0.051c-0.601,0.018-1.201,0.023-1.802,0.023c-0.6,0-1.134,0-1.6,0
		c-0.534,0-1.109-0.006-1.726-0.023c-0.618-0.017-1.109-0.057-1.476-0.125c-0.268,0-0.484,0.135-0.651,0.401
		c-1.134,1.935-2.06,3.593-2.777,4.976c-0.717,1.385-1.208,2.426-1.476,3.127c-0.1,0.302-0.15,0.568-0.15,0.802
		c0,0.3,0.133,0.558,0.4,0.774c0.267,0.218,0.884,0.324,1.851,0.324c0.201,0,0.3,0.068,0.3,0.201c0,0.101-0.083,0.166-0.25,0.201
		c-0.2,0.031-0.4,0.049-0.601,0.049c-0.167,0-0.35,0-0.549,0c-1.035,0-1.86-0.018-2.477-0.049c-0.619-0.035-1.093-0.084-1.427-0.15
		c-0.333-0.068-0.542-0.151-0.625-0.252c-0.083-0.098-0.125-0.23-0.125-0.399c0-0.167,0.083-0.417,0.25-0.751
		c0.667-1.268,1.483-2.615,2.452-4.052c0.967-1.433,1.801-2.769,2.501-4.001c1.067-1.834,2.151-3.76,3.252-5.777
		c1.101-2.019,2.051-3.928,2.852-5.729c0.133-0.334,0.05-0.518-0.25-0.553c-0.233-0.031-0.559-0.057-0.976-0.074
		c-0.417-0.015-0.759-0.025-1.025-0.025c-0.168,0-0.259-0.006-0.276-0.023s-0.024-0.059-0.024-0.127c0-0.198,0.083-0.299,0.25-0.299
		c0.566,0.034,1.317,0.049,2.251,0.049s1.802,0,2.601,0c0.734,0,1.542-0.023,2.427-0.074c0.883-0.049,1.776-0.133,2.676-0.25
		c0.901-0.115,1.768-0.268,2.602-0.451c0.833-0.182,1.551-0.406,2.151-0.674c0.066-0.033,0.132-0.051,0.2-0.051
		c0.167,0,0.25,0.051,0.25,0.15c-0.3,0.335-0.533,0.717-0.7,1.151c-0.134,0.333-0.333,0.5-0.601,0.5
		c-0.599,0.032-1.25,0.058-1.95,0.075s-1.418,0.034-2.151,0.049c-0.734,0.018-1.443,0.034-2.125,0.051
		c-0.684,0.018-1.276,0.041-1.776,0.075c-0.267,0.034-0.459,0.101-0.576,0.199c-0.116,0.101-0.243,0.252-0.375,0.45
		c-0.3,0.435-0.684,1.061-1.15,1.877c-0.468,0.816-0.96,1.676-1.476,2.576c-0.517,0.899-1,1.768-1.451,2.602
		c-0.45,0.833-0.809,1.5-1.075,2c0,0.201,0.283,0.385,0.851,0.552c0.566,0.167,1.383,0.25,2.451,0.25
		c1.167,0,2.327-0.058,3.478-0.175c1.15-0.118,2.209-0.309,3.176-0.576L60.263,33.351z"/>
	<path fill="#0A1A9C" stroke="#0A1A9C" stroke-width="0.75" stroke-miterlimit="10" d="M91.7,12.288c0,0.468-0.184,1.149-0.55,2.052
		c-0.368,0.899-0.893,1.942-1.577,3.127c-0.684,1.183-1.518,2.45-2.5,3.8c-0.984,1.352-2.101,2.693-3.352,4.029
		c-1.251,1.334-2.627,2.607-4.127,3.826c-1.5,1.217-3.102,2.294-4.803,3.226c-0.3,0.534-0.717,1.251-1.25,2.152
		c-0.535,0.899-1.059,1.851-1.577,2.852c-0.517,1-0.967,1.983-1.35,2.952c-0.385,0.966-0.576,1.784-0.576,2.451
		c0,1.066,0.483,1.599,1.452,1.599c0.833,0,1.7-0.23,2.601-0.698c0.901-0.467,1.759-1.035,2.576-1.701
		c0.817-0.668,1.584-1.377,2.302-2.125c0.717-0.753,1.325-1.428,1.827-2.026c0.232-0.233,0.366-0.293,0.4-0.176
		c0.033,0.118-0.018,0.241-0.151,0.374c-0.6,0.735-1.309,1.518-2.125,2.352c-0.818,0.834-1.685,1.602-2.602,2.302
		c-0.918,0.699-1.876,1.284-2.877,1.751c-1,0.468-2,0.701-3.001,0.701c-0.868,0-1.493-0.21-1.876-0.627
		c-0.384-0.416-0.575-0.926-0.575-1.525c0-0.602,0.259-1.458,0.776-2.576c0.516-1.117,1.125-2.293,1.825-3.526
		c0.7-1.233,1.401-2.403,2.101-3.501c0.7-1.102,1.217-1.935,1.551-2.504c0.568-0.966,1.159-1.975,1.776-3.025
		c0.617-1.051,1.226-2.076,1.825-3.076c0.601-1,1.177-1.961,1.726-2.877c0.552-0.918,1.059-1.725,1.526-2.426
		c0.567-0.868,1.151-1.686,1.751-2.452c0.6-0.768,1.367-1.534,2.301-2.3c1.266-1.068,2.433-1.885,3.502-2.451
		c1.066-0.566,1.783-0.852,2.15-0.852c0.267,0,0.483,0.075,0.651,0.225C91.616,11.762,91.7,11.988,91.7,12.288z M89.448,13.587
		c0-0.531-0.217-0.799-0.65-0.799c-0.167,0-0.35,0.051-0.55,0.149c-0.2,0.101-0.458,0.31-0.775,0.626
		c-0.317,0.316-0.701,0.76-1.151,1.326c-0.45,0.566-1.026,1.301-1.726,2.201c-0.267,0.367-0.642,0.899-1.125,1.601
		c-0.484,0.699-1.101,1.627-1.851,2.776c-0.75,1.15-1.651,2.567-2.702,4.252c-1.051,1.684-2.294,3.678-3.727,5.979
		c2.001-1.133,3.876-2.51,5.628-4.128c1.75-1.616,3.26-3.276,4.527-4.976c1.268-1.701,2.268-3.354,3.002-4.955
		C89.081,16.041,89.448,14.69,89.448,13.587z"/>
	<path fill="#0A1A9C" stroke="#0A1A9C" stroke-width="0.75" stroke-miterlimit="10" d="M99.474,38.352
		c-0.801,1.034-1.719,2.019-2.752,2.952c-1.034,0.934-1.985,1.684-2.852,2.25c-0.667,0.435-1.351,0.768-2.051,1.001
		s-1.335,0.351-1.9,0.351c-0.201,0-0.435-0.018-0.701-0.049c-0.267-0.035-0.509-0.118-0.726-0.25
		c-0.217-0.133-0.399-0.309-0.55-0.526c-0.149-0.216-0.224-0.509-0.224-0.876c0-0.432,0.167-1.026,0.5-1.776
		c0.333-0.748,0.725-1.526,1.176-2.325c0.45-0.8,0.9-1.567,1.351-2.303c0.45-0.73,0.808-1.282,1.075-1.65
		c0.167-0.267,0.458-0.491,0.875-0.675c0.417-0.185,0.691-0.274,0.826-0.274c0.167,0,0.25,0.05,0.25,0.15
		c0,0.066-0.026,0.166-0.075,0.299c-0.05,0.135-0.109,0.233-0.175,0.3c-0.434,0.669-0.875,1.401-1.327,2.201
		c-0.45,0.802-0.859,1.575-1.226,2.327c-0.367,0.751-0.658,1.443-0.875,2.076c-0.217,0.633-0.325,1.135-0.325,1.5
		c0,0.4,0.108,0.693,0.325,0.877c0.217,0.182,0.509,0.273,0.875,0.273c0.667,0,1.401-0.225,2.202-0.676
		c0.8-0.448,1.592-0.991,2.376-1.624c0.783-0.635,1.508-1.302,2.176-2.003c0.667-0.699,1.183-1.299,1.551-1.8
		c0.167-0.167,0.257-0.207,0.274-0.124C99.565,38.062,99.54,38.185,99.474,38.352z M97.223,27.196c0,0.4-0.175,0.8-0.525,1.201
		c-0.35,0.4-0.743,0.599-1.176,0.599c-0.4,0-0.601-0.198-0.601-0.599c0-0.434,0.158-0.851,0.476-1.252
		c0.316-0.4,0.708-0.602,1.175-0.602C97.005,26.544,97.223,26.763,97.223,27.196z"/>
	<path fill="#0A1A9C" stroke="#0A1A9C" stroke-width="0.75" stroke-miterlimit="10" d="M118.684,31.548c0,0.3-0.083,0.602-0.25,0.9
		c-1.668,3.104-3.168,5.846-4.502,8.231c-1.333,2.383-2.601,4.585-3.802,6.603c-1.2,2.018-2.384,3.967-3.552,5.852
		c-1.168,1.886-2.401,3.895-3.702,6.03c-1.067,1.699-2.226,3.292-3.477,4.777c-1.25,1.483-2.635,2.769-4.152,3.852
		c-1.518,1.084-3.168,1.935-4.953,2.55c-1.784,0.618-3.743,0.928-5.878,0.928c-1.566,0-2.858-0.209-3.876-0.626
		s-1.818-0.977-2.401-1.676c-0.583-0.701-0.993-1.501-1.226-2.403c-0.233-0.899-0.351-1.833-0.351-2.799
		c0-0.402,0.034-0.826,0.101-1.276c0.067-0.451,0.15-0.811,0.25-1.075c0.033-0.135,0.1-0.201,0.2-0.201
		c0.1,0,0.149,0.084,0.149,0.25c-0.066,0.233-0.132,0.509-0.2,0.825c-0.066,0.316-0.1,0.658-0.1,1.026
		c0,1.166,0.25,2.176,0.75,3.026c0.5,0.851,1.192,1.552,2.075,2.101c0.885,0.55,1.927,0.967,3.127,1.251
		c1.202,0.284,2.485,0.425,3.852,0.425c1.434,0,2.877-0.232,4.327-0.698c1.451-0.469,2.894-1.244,4.327-2.328
		c1.436-1.083,2.844-2.492,4.228-4.228c1.384-1.733,2.743-3.869,4.077-6.402c0.867-1.601,1.784-3.302,2.751-5.104
		c0.967-1.8,1.901-3.527,2.802-5.178c0.9-1.652,1.709-3.133,2.426-4.451c0.717-1.317,1.242-2.277,1.577-2.877
		c-0.668,0.899-1.319,1.75-1.952,2.552c-0.634,0.8-1.226,1.501-1.776,2.101c-0.55,0.602-1.075,1.075-1.575,1.426
		s-0.951,0.525-1.351,0.525c-0.3,0-0.55-0.1-0.75-0.301c-0.201-0.199-0.3-0.518-0.3-0.951c0-0.5,0.207-1.207,0.625-2.125
		c0.417-0.916,0.966-1.877,1.651-2.877c0.683-1,1.458-1.951,2.326-2.852c0.868-0.901,1.751-1.566,2.651-2
		c0.8-0.402,1.601-0.601,2.401-0.601c0.233,0,0.417,0.017,0.55,0.049c0.266-0.466,0.542-0.932,0.825-1.399
		c0.283-0.469,0.576-0.969,0.876-1.501c0.233-0.434,0.45-0.649,0.649-0.649c0.133,0,0.258,0.149,0.375,0.449
		C118.625,30.997,118.684,31.281,118.684,31.548z M115.482,34.5c-0.101-0.034-0.233-0.052-0.399-0.052c-0.135,0-0.25,0-0.351,0
		c-0.468,0-0.91,0.043-1.327,0.127c-0.417,0.083-0.774,0.258-1.075,0.525c-0.834,0.699-1.551,1.483-2.151,2.352
		c-0.6,0.867-1.1,1.719-1.5,2.552c-0.401,0.834-0.693,1.593-0.875,2.274c-0.184,0.684-0.276,1.176-0.276,1.477
		c0,0.368,0.101,0.55,0.3,0.55c0.2,0,0.601-0.282,1.202-0.851c0.599-0.566,1.275-1.316,2.026-2.251
		c0.75-0.935,1.525-1.983,2.326-3.153C114.181,36.886,114.882,35.701,115.482,34.5z"/>
	<path fill="#0A1A9C" stroke="#0A1A9C" stroke-width="0.75" stroke-miterlimit="10" d="M160.977,11.937
		c0,0.535-0.025,0.935-0.074,1.202c-0.05,0.267-0.102,0.448-0.15,0.552c-0.051,0.098-0.1,0.123-0.149,0.072
		c-0.052-0.049-0.077-0.107-0.077-0.176c0-0.23-0.058-0.549-0.173-0.949c-0.118-0.398-0.351-0.79-0.701-1.175
		c-0.351-0.383-0.843-0.718-1.475-1.001c-0.635-0.283-1.452-0.425-2.454-0.425c-0.866,0-1.759,0.124-2.676,0.376
		c-0.917,0.248-1.909,0.733-2.976,1.449c-1.069,0.719-2.21,1.71-3.426,2.978c-1.218,1.268-2.543,2.909-3.978,4.927
		c-1.435,2.018-2.994,4.47-4.678,7.355c-1.685,2.885-3.527,6.295-5.528,10.229c0.233-0.201,0.601-0.5,1.101-0.899
		c0.5-0.4,1.051-0.803,1.65-1.201c0.601-0.4,1.184-0.751,1.751-1.051c0.566-0.301,1.051-0.45,1.451-0.45
		c0.299,0,0.45,0.117,0.45,0.349c0,0.201-0.151,0.502-0.45,0.902c-0.268,0.398-0.618,0.951-1.051,1.649
		c-0.434,0.701-0.858,1.451-1.275,2.251c-0.417,0.801-0.776,1.586-1.076,2.352c-0.299,0.77-0.45,1.385-0.45,1.853
		c0,0.532,0.132,0.935,0.401,1.199c0.266,0.267,0.632,0.399,1.1,0.399c0.767,0,1.851-0.5,3.252-1.5c1.401-1,3.002-2.699,4.804-5.103
		c0.066-0.065,0.132-0.101,0.199-0.101s0.101,0.068,0.101,0.201c-0.633,0.9-1.377,1.802-2.227,2.701
		c-0.851,0.9-1.718,1.717-2.601,2.45c-0.885,0.735-1.769,1.327-2.651,1.778c-0.885,0.449-1.694,0.676-2.427,0.676
		c-0.567,0-1.018-0.16-1.351-0.477c-0.333-0.316-0.5-0.76-0.5-1.326c0-0.533,0.184-1.218,0.55-2.051
		c0.367-0.834,0.776-1.676,1.226-2.527c0.45-0.851,0.858-1.633,1.226-2.352c0.367-0.715,0.55-1.225,0.55-1.523
		c0-0.169-0.05-0.252-0.15-0.252c-0.299,0-0.842,0.284-1.625,0.851c-0.785,0.568-1.759,1.635-2.926,3.202
		c-0.468,0.833-0.951,1.701-1.451,2.602c-0.5,0.899-0.934,1.701-1.301,2.399c-0.267,0.534-0.517,0.802-0.75,0.802
		c-0.167,0-0.384-0.043-0.651-0.126c-0.268-0.083-0.4-0.241-0.4-0.475c0-0.167,0.05-0.351,0.149-0.55
		c1.401-2.535,2.768-4.929,4.103-7.18c1.334-2.25,2.685-4.461,4.051-6.628c1.602-2.501,3.26-5.053,4.979-7.654
		c1.717-2.601,3.477-4.97,5.278-7.103c1.802-2.135,3.627-3.877,5.479-5.229c1.851-1.351,3.708-2.025,5.576-2.025
		c0.468,0,0.951,0.057,1.452,0.175c0.5,0.118,0.977,0.308,1.425,0.575c0.451,0.268,0.817,0.643,1.101,1.126
		C160.836,10.546,160.977,11.172,160.977,11.937z"/>
	<path fill="#0A1A9C" stroke="#0A1A9C" stroke-width="0.75" stroke-miterlimit="10" d="M163.048,26.646
		c-0.267,0.068-0.566,0.191-0.899,0.375c-0.334,0.185-0.584,0.409-0.751,0.676c-0.767,1.066-1.509,2.185-2.228,3.352
		c-0.718,1.168-1.408,2.334-2.075,3.502h6.203c0.101,0.068,0.149,0.135,0.149,0.2c0,0.066-0.031,0.118-0.098,0.149
		c-0.27,0-0.67,0.009-1.201,0.025c-0.535,0.018-1.119,0.041-1.751,0.076c-0.635,0.033-1.284,0.065-1.952,0.1
		c-0.666,0.034-1.25,0.066-1.75,0.101c-0.934,1.667-1.652,3.085-2.152,4.251c-0.5,1.168-0.75,2.186-0.75,3.053
		c0,1.199,0.552,1.8,1.65,1.8c0.534,0,1.144-0.142,1.827-0.425c0.682-0.283,1.409-0.659,2.176-1.125
		c0.101-0.101,0.2-0.092,0.3,0.023c0.1,0.117,0.065,0.209-0.1,0.275c-1.135,0.733-2.186,1.268-3.152,1.602
		c-0.968,0.334-1.951,0.5-2.952,0.5c-0.534,0-1-0.158-1.4-0.475c-0.4-0.316-0.601-0.859-0.601-1.627c0-0.666,0.299-1.649,0.9-2.951
		c0.601-1.3,1.483-2.9,2.652-4.803c-0.402,0.033-0.894,0.076-1.477,0.126c-0.583,0.049-0.925,0.075-1.026,0.075
		c-0.167,0-0.25-0.066-0.25-0.201c0.135-0.233,0.351-0.467,0.652-0.699l2.55-0.051c0.302-0.5,0.635-1.059,1-1.676
		c0.368-0.616,0.735-1.234,1.101-1.852c0.367-0.615,0.741-1.217,1.126-1.8c0.383-0.583,0.725-1.126,1.026-1.626
		c0.365-0.167,0.874-0.383,1.525-0.65c0.65-0.268,1.225-0.482,1.726-0.65c0.066,0,0.118,0.041,0.149,0.125
		C163.231,26.504,163.18,26.579,163.048,26.646z"/>
	<path fill="#0A1A9C" stroke="#0A1A9C" stroke-width="0.75" stroke-miterlimit="10" d="M189.881,24.595
		c-0.132,0.334-0.29,0.768-0.474,1.3c-0.185,0.534-0.325,0.985-0.426,1.351c-0.133,0.068-0.25,0.018-0.351-0.148
		c0.101-0.201,0.151-0.451,0.151-0.751c0-0.601-0.292-1.167-0.876-1.701c-0.583-0.532-1.509-0.802-2.776-0.802
		c-1.334,0-2.42,0.394-3.251,1.178c-0.834,0.782-1.251,1.825-1.251,3.125c0,1,0.233,1.935,0.699,2.803
		c0.468,0.867,0.983,1.669,1.552,2.402c0.432,0.566,0.791,1.041,1.075,1.424c0.282,0.384,0.509,0.734,0.676,1.051
		c0.166,0.316,0.282,0.617,0.351,0.9c0.066,0.283,0.101,0.626,0.101,1.025c0,0.701-0.161,1.385-0.478,2.053
		c-0.316,0.666-0.732,1.284-1.25,1.851s-1.084,1.075-1.701,1.524c-0.616,0.45-1.225,0.81-1.825,1.076
		c-1.501,0.668-3.168,1.001-5.002,1.001c-0.77,0-1.526-0.068-2.276-0.201c-0.75-0.132-1.443-0.351-2.078-0.649
		c-0.166-0.101-0.316-0.192-0.448-0.275c-0.135-0.082-0.218-0.176-0.251-0.276c0.133-0.566,0.291-1.208,0.475-1.926
		c0.185-0.716,0.343-1.308,0.475-1.774c0-0.066,0.052-0.1,0.152-0.1c0.099,0,0.149,0.083,0.149,0.25
		c-0.101,0.299-0.149,0.6-0.149,0.899c0,0.935,0.383,1.759,1.149,2.478c0.768,0.716,1.952,1.075,3.553,1.075
		c0.601,0,1.208-0.058,1.825-0.176c0.616-0.117,1.176-0.292,1.676-0.525c1.035-0.466,1.909-1.124,2.627-1.976
		c0.717-0.85,1.075-1.859,1.075-3.026c0-0.568-0.132-1.144-0.399-1.728c-0.268-0.58-0.784-1.356-1.552-2.324
		c-0.667-0.869-1.176-1.634-1.526-2.303c-0.351-0.667-0.523-1.432-0.523-2.3s0.19-1.733,0.575-2.604
		c0.382-0.866,0.856-1.633,1.426-2.3c0.198-0.232,0.474-0.509,0.824-0.825s0.768-0.608,1.251-0.876
		c0.482-0.266,1.052-0.5,1.701-0.699c0.649-0.201,1.374-0.301,2.176-0.301c0.532,0,1.052,0.074,1.55,0.224
		c0.502,0.149,0.951,0.442,1.351,0.876C189.8,24.127,189.881,24.362,189.881,24.595z"/>
	<path fill="#0A1A9C" stroke="#0A1A9C" stroke-width="0.75" stroke-miterlimit="10" d="M208.812,38.352
		c-0.799,1.034-1.719,2.019-2.751,2.952c-1.034,0.934-1.985,1.684-2.851,2.25c-0.67,0.435-1.352,0.768-2.053,1.001
		s-1.334,0.351-1.9,0.351c-0.2,0-0.434-0.018-0.7-0.049c-0.268-0.035-0.509-0.118-0.728-0.25c-0.216-0.133-0.399-0.309-0.549-0.526
		c-0.149-0.216-0.225-0.509-0.225-0.876c0-0.432,0.167-1.026,0.5-1.776c0.334-0.748,0.725-1.526,1.176-2.325
		c0.449-0.8,0.9-1.567,1.351-2.303c0.449-0.73,0.809-1.282,1.075-1.65c0.167-0.267,0.458-0.491,0.877-0.675
		c0.416-0.185,0.69-0.274,0.825-0.274c0.166,0,0.25,0.05,0.25,0.15c0,0.066-0.026,0.166-0.075,0.299
		c-0.052,0.135-0.109,0.233-0.175,0.3c-0.435,0.669-0.877,1.401-1.325,2.201c-0.451,0.802-0.862,1.575-1.228,2.327
		c-0.367,0.751-0.658,1.443-0.876,2.076c-0.216,0.633-0.325,1.135-0.325,1.5c0,0.4,0.109,0.693,0.325,0.877
		c0.218,0.182,0.509,0.273,0.876,0.273c0.667,0,1.4-0.225,2.202-0.676c0.799-0.448,1.592-0.991,2.376-1.624
		c0.783-0.635,1.508-1.302,2.177-2.003c0.666-0.699,1.182-1.299,1.549-1.8c0.167-0.167,0.259-0.207,0.276-0.124
		C208.904,38.062,208.879,38.185,208.812,38.352z M206.56,27.196c0,0.4-0.173,0.8-0.523,1.201c-0.351,0.4-0.741,0.599-1.176,0.599
		c-0.399,0-0.601-0.198-0.601-0.599c0-0.434,0.158-0.851,0.475-1.252c0.316-0.4,0.71-0.602,1.176-0.602
		C206.344,26.544,206.56,26.763,206.56,27.196z"/>
	<path fill="#0A1A9C" stroke="#0A1A9C" stroke-width="0.75" stroke-miterlimit="10" d="M228.043,31.548c0,0.3-0.085,0.602-0.25,0.9
		c-1.669,3.104-3.17,5.846-4.503,8.231c-1.334,2.383-2.602,4.585-3.803,6.603c-1.199,2.018-2.384,3.967-3.551,5.852
		c-1.169,1.886-2.402,3.895-3.702,6.03c-1.066,1.699-2.227,3.292-3.478,4.777c-1.25,1.483-2.633,2.769-4.152,3.852
		c-1.516,1.084-3.168,1.935-4.953,2.55c-1.782,0.618-3.742,0.928-5.878,0.928c-1.566,0-2.857-0.209-3.877-0.626
		c-1.018-0.417-1.817-0.977-2.4-1.676c-0.584-0.701-0.992-1.501-1.225-2.403c-0.235-0.899-0.351-1.833-0.351-2.799
		c0-0.402,0.034-0.826,0.101-1.276c0.065-0.451,0.149-0.811,0.25-1.075c0.034-0.135,0.098-0.201,0.198-0.201s0.152,0.084,0.152,0.25
		c-0.068,0.233-0.135,0.509-0.201,0.825s-0.101,0.658-0.101,1.026c0,1.166,0.25,2.176,0.75,3.026s1.193,1.552,2.078,2.101
		c0.883,0.55,1.926,0.967,3.125,1.251c1.201,0.284,2.485,0.425,3.852,0.425c1.434,0,2.877-0.232,4.328-0.698
		c1.449-0.469,2.895-1.244,4.326-2.328c1.435-1.083,2.845-2.492,4.228-4.228c1.386-1.733,2.745-3.869,4.079-6.402
		c0.865-1.601,1.782-3.302,2.75-5.104c0.967-1.8,1.9-3.527,2.801-5.178c0.901-1.652,1.71-3.133,2.428-4.451
		c0.716-1.317,1.242-2.277,1.575-2.877c-0.669,0.899-1.318,1.75-1.951,2.552c-0.633,0.8-1.225,1.501-1.776,2.101
		c-0.549,0.602-1.075,1.075-1.575,1.426s-0.951,0.525-1.351,0.525c-0.3,0-0.55-0.1-0.751-0.301c-0.2-0.199-0.301-0.518-0.301-0.951
		c0-0.5,0.209-1.207,0.626-2.125c0.417-0.916,0.966-1.877,1.652-2.877c0.682-1,1.458-1.951,2.325-2.852
		c0.866-0.901,1.751-1.566,2.65-2c0.802-0.402,1.602-0.601,2.403-0.601c0.232,0,0.416,0.017,0.549,0.049
		c0.268-0.466,0.543-0.932,0.825-1.399c0.284-0.469,0.575-0.969,0.876-1.501c0.233-0.434,0.451-0.649,0.65-0.649
		c0.132,0,0.258,0.149,0.376,0.449C227.983,30.997,228.043,31.281,228.043,31.548z M224.842,34.5
		c-0.101-0.034-0.235-0.052-0.4-0.052c-0.135,0-0.252,0-0.351,0c-0.468,0-0.91,0.043-1.327,0.127
		c-0.417,0.083-0.773,0.258-1.075,0.525c-0.833,0.699-1.55,1.483-2.15,2.352c-0.601,0.867-1.101,1.719-1.5,2.552
		c-0.402,0.834-0.692,1.593-0.877,2.274c-0.184,0.684-0.275,1.176-0.275,1.477c0,0.368,0.101,0.55,0.302,0.55
		c0.2,0,0.601-0.282,1.201-0.851c0.599-0.566,1.273-1.316,2.024-2.251c0.752-0.935,1.525-1.983,2.327-3.153
		C223.54,36.886,224.241,35.701,224.842,34.5z"/>
	<path fill="#0A1A9C" stroke="#0A1A9C" stroke-width="0.75" stroke-miterlimit="10" d="M270.335,11.937
		c0,0.535-0.023,0.935-0.075,1.202c-0.049,0.267-0.101,0.448-0.149,0.552c-0.051,0.098-0.101,0.123-0.149,0.072
		c-0.052-0.049-0.075-0.107-0.075-0.176c0-0.23-0.06-0.549-0.175-0.949c-0.118-0.398-0.351-0.79-0.701-1.175
		c-0.351-0.383-0.842-0.718-1.475-1.001c-0.635-0.283-1.451-0.425-2.452-0.425c-0.867,0-1.761,0.124-2.676,0.376
		c-0.919,0.248-1.911,0.733-2.978,1.449c-1.066,0.719-2.21,1.71-3.427,2.978c-1.218,1.268-2.543,2.909-3.978,4.927
		s-2.994,4.47-4.679,7.355c-1.683,2.885-3.524,6.295-5.527,10.229c0.232-0.201,0.601-0.5,1.101-0.899
		c0.5-0.4,1.052-0.803,1.652-1.201c0.599-0.4,1.182-0.751,1.751-1.051c0.566-0.301,1.051-0.45,1.451-0.45
		c0.299,0,0.448,0.117,0.448,0.349c0,0.201-0.149,0.502-0.448,0.902c-0.27,0.398-0.618,0.951-1.052,1.649
		c-0.434,0.701-0.859,1.451-1.276,2.251c-0.417,0.801-0.773,1.586-1.075,2.352c-0.299,0.77-0.451,1.385-0.451,1.853
		c0,0.532,0.135,0.935,0.402,1.199c0.265,0.267,0.633,0.399,1.101,0.399c0.766,0,1.852-0.5,3.251-1.5c1.4-1,3.001-2.699,4.803-5.103
		c0.066-0.065,0.133-0.101,0.199-0.101s0.101,0.068,0.101,0.201c-0.633,0.9-1.375,1.802-2.226,2.701
		c-0.851,0.9-1.719,1.717-2.601,2.45c-0.886,0.735-1.771,1.327-2.653,1.778c-0.885,0.449-1.692,0.676-2.426,0.676
		c-0.568,0-1.018-0.16-1.351-0.477c-0.334-0.316-0.5-0.76-0.5-1.326c0-0.533,0.184-1.218,0.549-2.051
		c0.368-0.834,0.776-1.676,1.227-2.527c0.449-0.851,0.857-1.633,1.228-2.352c0.365-0.715,0.549-1.225,0.549-1.523
		c0-0.169-0.051-0.252-0.149-0.252c-0.302,0-0.844,0.284-1.627,0.851c-0.784,0.568-1.759,1.635-2.928,3.202
		c-0.466,0.833-0.949,1.701-1.449,2.602c-0.5,0.899-0.935,1.701-1.3,2.399c-0.267,0.534-0.52,0.802-0.752,0.802
		c-0.167,0-0.383-0.043-0.65-0.126c-0.267-0.083-0.399-0.241-0.399-0.475c0-0.167,0.049-0.351,0.149-0.55
		c1.402-2.535,2.769-4.929,4.102-7.18c1.334-2.25,2.686-4.461,4.053-6.628c1.602-2.501,3.26-5.053,4.979-7.654
		c1.716-2.601,3.478-4.97,5.277-7.103c1.802-2.135,3.627-3.877,5.479-5.229c1.851-1.351,3.71-2.025,5.578-2.025
		c0.466,0,0.951,0.057,1.449,0.175c0.503,0.118,0.978,0.308,1.426,0.575c0.451,0.268,0.816,0.643,1.101,1.126
		S270.335,11.172,270.335,11.937z"/>
	<path fill="#0A1A9C" stroke="#0A1A9C" stroke-width="0.75" stroke-miterlimit="10" d="M272.406,26.646
		c-0.268,0.068-0.566,0.191-0.9,0.375c-0.333,0.185-0.583,0.409-0.75,0.676c-0.768,1.066-1.509,2.185-2.228,3.352
		c-0.716,1.168-1.408,2.334-2.075,3.502h6.203c0.101,0.068,0.149,0.135,0.149,0.2c0,0.066-0.032,0.118-0.099,0.149
		c-0.269,0-0.669,0.009-1.201,0.025c-0.534,0.018-1.117,0.041-1.752,0.076c-0.633,0.033-1.283,0.065-1.95,0.1
		c-0.666,0.034-1.25,0.066-1.75,0.101c-0.935,1.667-1.652,3.085-2.152,4.251c-0.5,1.168-0.75,2.186-0.75,3.053
		c0,1.199,0.551,1.8,1.649,1.8c0.534,0,1.144-0.142,1.828-0.425c0.682-0.283,1.408-0.659,2.176-1.125
		c0.101-0.101,0.201-0.092,0.299,0.023c0.101,0.117,0.066,0.209-0.098,0.275c-1.136,0.733-2.185,1.268-3.153,1.602
		c-0.968,0.334-1.951,0.5-2.952,0.5c-0.532,0-1-0.158-1.399-0.475s-0.601-0.859-0.601-1.627c0-0.666,0.299-1.649,0.899-2.951
		c0.601-1.3,1.483-2.9,2.653-4.803c-0.402,0.033-0.894,0.076-1.478,0.126c-0.583,0.049-0.923,0.075-1.023,0.075
		c-0.169,0-0.25-0.066-0.25-0.201c0.132-0.233,0.351-0.467,0.649-0.699l2.55-0.051c0.302-0.5,0.635-1.059,1.003-1.676
		c0.365-0.616,0.73-1.234,1.101-1.852c0.365-0.615,0.739-1.217,1.124-1.8c0.383-0.583,0.725-1.126,1.026-1.626
		c0.365-0.167,0.874-0.383,1.526-0.65c0.649-0.268,1.225-0.482,1.725-0.65c0.066,0,0.117,0.041,0.149,0.125
		C272.59,26.504,272.539,26.579,272.406,26.646z"/>
	<g>
		<path fill="#FF3333" d="M173.52,92.11c-0.259-0.104-0.687-0.234-1.276-0.234c-1.284,0.004-3.366,0.596-5.984,3.812v-0.002
			c-1.244,1.543-2.6,3.693-4.014,6.633c3.133,0.613,4.949,1.78,5.95,2.967c0.479,0.575,0.765,1.137,0.937,1.62
			c2.949-3.071,4.706-7.21,4.706-11.606C173.836,94.246,173.727,93.18,173.52,92.11z"/>
		<path fill="#FF3333" d="M162.567,79.442c-0.192,0.156-0.455,0.403-0.707,0.795c-0.39,0.599-0.756,1.5-0.756,2.888
			c0,1.131,0.248,2.584,0.959,4.429c0.7,1.823,1.885,4.049,3.693,6.692c2.554-2.902,4.857-3.704,6.486-3.7
			c0.332,0,0.627,0.034,0.892,0.084C171.59,85.261,167.564,81.192,162.567,79.442z"/>
		<path fill="#FF3333" d="M168.034,107.958c-0.055-0.385-0.236-1.073-0.854-1.811c-0.835-0.987-2.514-2.129-5.954-2.661
			l-0.014-0.002l0.014,0.002c-1.211-0.19-2.625-0.302-4.289-0.302c-1.037,0-2.194,0.054-3.434,0.15
			c0.555,1.624,0.797,3.007,0.797,4.157c0.001,1.624-0.45,2.807-0.976,3.6c-0.117,0.179-0.239,0.335-0.357,0.474
			c1.307,0.327,2.668,0.507,4.054,0.507c1.148,0,2.312-0.119,3.482-0.365h0.002C163.396,111.1,165.946,109.769,168.034,107.958z"/>
		<path fill="#FF3333" d="M146.06,82.607c0.054,0.383,0.236,1.077,0.854,1.823c0.836,1.005,2.503,2.155,5.934,2.689l0,0
			c1.188,0.19,2.583,0.299,4.224,0.299c1.055,0,2.23-0.056,3.491-0.153c-0.548-1.618-0.786-2.995-0.786-4.143
			c0-1.625,0.443-2.811,0.968-3.612c0.128-0.19,0.252-0.357,0.38-0.507c-1.308-0.331-2.67-0.509-4.059-0.509
			c-1.148,0-2.312,0.117-3.482,0.363C150.691,79.466,148.144,80.795,146.06,82.607z"/>
		<path fill="#FF3333" d="M140.575,98.461c0.265,0.104,0.688,0.233,1.275,0.233c1.291-0.007,3.384-0.599,6.007-3.839l0.002-0.005
			c1.244-1.525,2.588-3.654,3.981-6.565c-3.134-0.62-4.948-1.798-5.948-3.001c-0.479-0.582-0.761-1.14-0.932-1.627
			c-2.947,3.073-4.705,7.214-4.705,11.612C140.261,96.323,140.371,97.391,140.575,98.461z"/>
		<path fill="#FF3333" d="M151.531,111.121c0.188-0.149,0.441-0.389,0.687-0.761c0.387-0.59,0.752-1.485,0.754-2.871
			c0-1.143-0.256-2.622-0.991-4.503c-0.703-1.812-1.884-4.022-3.664-6.637c-2.537,2.881-4.837,3.679-6.461,3.676
			c-0.336,0-0.627-0.036-0.894-0.083C142.514,105.306,146.538,109.379,151.531,111.121z"/>
	</g>
	<path fill="#FFFFFF" d="M214.607,86.19"/>
	<g>
		<path fill="#0A1A9C" d="M66.452,98.019c22.405,0,44.807,0,67.213,0c2.229,0,2.229-3.283,0-3.283c-22.406,0-44.808,0-67.213,0
			C64.223,94.735,64.223,98.019,66.452,98.019L66.452,98.019z"/>
		<path fill="#0A1A9C" d="M179.822,98.019c22.492,0,44.982,0,67.475,0c2.238,0,2.238-3.283,0-3.283c-22.492,0-44.982,0-67.475,0
			C177.584,94.735,177.584,98.019,179.822,98.019L179.822,98.019z"/>
		<path fill="none" stroke="#0A1A9C" stroke-width="3" stroke-miterlimit="10" d="M135.021,94.735
			c0,12.081,9.776,21.855,21.857,21.855"/>
		<path fill="none" stroke="#0A1A9C" stroke-width="3" stroke-miterlimit="10" d="M178.734,94.735
			c0,12.081-9.776,21.855-21.856,21.855"/>
	</g>
	<g>
		<path fill="#0A1A9C" d="M72.188,127.111c0-4.758,10.342-23.409,6.612-23.409H65.577C61.849,103.702,72.188,122.354,72.188,127.111
			"/>
		<path fill="#0A1A9C" d="M79.626,77.519c0-1.054-1.47-1.906-3.283-1.906h-8.278c-1.812,0-3.283,0.853-3.283,1.906v10.313
			c0,1.051,1.471,1.904,3.283,1.904h8.278c1.813,0,3.283-0.854,3.283-1.904V77.519z"/>
		<path fill="#0A1A9C" d="M37.266,79.129c-0.16,0-0.318,0.004-0.479,0.007l-5.534,7.52c2.006,0.076,4.011,0.128,6.013,0.13
			c0.282,0,0.564-0.009,0.845-0.011l5.527-7.511C41.513,79.178,39.391,79.125,37.266,79.129z"/>
		<path fill="#0A1A9C" d="M18.11,79.956c-5.292,0.592-10.583,1.415-15.873,3.001c5.29,1.584,10.581,2.407,15.873,3.001
			c1.78,0.19,3.563,0.331,5.344,0.455l5.286-7.184C25.196,79.35,21.652,79.578,18.11,79.956z"/>
		<path fill="#0A1A9C" d="M33.482,79.163l-5.448,7.404c0.607,0.032,1.212,0.051,1.817,0.075l5.521-7.503
			C34.744,79.142,34.113,79.152,33.482,79.163z"/>
		<path fill="#0A1A9C" d="M30.161,79.217l-5.31,7.216c0.595,0.041,1.19,0.083,1.787,0.115l5.432-7.381
			C31.433,79.181,30.798,79.197,30.161,79.217z"/>
		<path fill="#0A1A9C" d="M56.424,79.945c-1.665-0.177-3.328-0.314-4.993-0.432l-5.271,7.163c3.422-0.12,6.842-0.345,10.264-0.708
			c5.29-0.59,10.58-1.417,15.873-3.012C67.004,81.36,61.714,80.535,56.424,79.945z"/>
		<path fill="#0A1A9C" d="M48.248,79.379l-5.42,7.368c0.637-0.016,1.273-0.036,1.912-0.058l5.295-7.195
			C49.438,79.454,48.845,79.413,48.248,79.379z"/>
		<path fill="#0A1A9C" d="M45.04,79.276l-5.515,7.496c0.628-0.004,1.259-0.011,1.888-0.023l5.438-7.39
			C46.248,79.325,45.645,79.302,45.04,79.276z"/>
		<path fill="#0A1A9C" d="M107.11,79.129c-0.16,0-0.318,0.004-0.479,0.007l-5.534,7.52c2.005,0.076,4.01,0.128,6.013,0.13
			c0.282,0,0.564-0.009,0.845-0.011l5.527-7.511C111.357,79.178,109.235,79.125,107.11,79.129z"/>
		<path fill="#0A1A9C" d="M87.955,79.956c-5.293,0.592-10.583,1.415-15.873,3.001c5.29,1.584,10.58,2.407,15.873,3.001
			c1.78,0.19,3.562,0.331,5.343,0.455l5.286-7.184C95.04,79.35,91.496,79.578,87.955,79.956z"/>
		<path fill="#0A1A9C" d="M103.327,79.163l-5.448,7.404c0.606,0.032,1.212,0.051,1.816,0.075l5.521-7.503
			C104.588,79.142,103.958,79.152,103.327,79.163z"/>
		<path fill="#0A1A9C" d="M100.006,79.217l-5.31,7.216c0.594,0.041,1.19,0.083,1.787,0.115l5.431-7.381
			C101.277,79.181,100.643,79.197,100.006,79.217z"/>
		<path fill="#0A1A9C" d="M126.269,79.945c-1.665-0.177-3.328-0.314-4.993-0.432l-5.271,7.163c3.423-0.12,6.843-0.345,10.265-0.708
			c5.29-0.59,10.58-1.417,15.872-3.012C136.849,81.36,131.559,80.535,126.269,79.945z"/>
		<path fill="#0A1A9C" d="M118.093,79.379l-5.421,7.368c0.637-0.016,1.274-0.036,1.913-0.058l5.295-7.195
			C119.283,79.454,118.689,79.413,118.093,79.379z"/>
		<path fill="#0A1A9C" d="M114.885,79.276l-5.515,7.496c0.628-0.004,1.259-0.011,1.887-0.023l5.438-7.39
			C116.092,79.325,115.489,79.302,114.885,79.276z"/>
	</g>
	<g>
		<path fill="#FFFFFF" d="M218.717,79.027"/>
		<path fill="#0A1A9C" d="M241.903,127.111c0-4.758,10.342-23.409,6.612-23.409h-13.224
			C231.563,103.702,241.903,122.354,241.903,127.111"/>
		<path fill="#0A1A9C" d="M249.341,77.519c0-1.054-1.47-1.906-3.283-1.906h-8.278c-1.812,0-3.283,0.853-3.283,1.906v10.313
			c0,1.051,1.471,1.904,3.283,1.904h8.278c1.813,0,3.283-0.854,3.283-1.904V77.519z"/>
		<path fill="#0A1A9C" d="M206.981,79.129c-0.16,0-0.318,0.004-0.479,0.007l-5.535,7.52c2.006,0.076,4.011,0.128,6.014,0.13
			c0.281,0,0.564-0.009,0.844-0.011l5.527-7.511C211.228,79.178,209.106,79.125,206.981,79.129z"/>
		<path fill="#0A1A9C" d="M187.825,79.956c-5.292,0.592-10.582,1.415-15.873,3.001c5.291,1.584,10.581,2.407,15.873,3.001
			c1.781,0.19,3.563,0.331,5.344,0.455l5.286-7.184C194.911,79.35,191.367,79.578,187.825,79.956z"/>
		<path fill="#0A1A9C" d="M203.198,79.163l-5.449,7.404c0.607,0.032,1.213,0.051,1.817,0.075l5.521-7.503
			C204.459,79.142,203.829,79.152,203.198,79.163z"/>
		<path fill="#0A1A9C" d="M199.876,79.217l-5.309,7.216c0.594,0.041,1.189,0.083,1.786,0.115l5.432-7.381
			C201.147,79.181,200.513,79.197,199.876,79.217z"/>
		<path fill="#0A1A9C" d="M226.14,79.945c-1.666-0.177-3.328-0.314-4.994-0.432l-5.271,7.163c3.423-0.12,6.843-0.345,10.265-0.708
			c5.289-0.59,10.58-1.417,15.872-3.012C236.72,81.36,231.429,80.535,226.14,79.945z"/>
		<path fill="#0A1A9C" d="M217.964,79.379l-5.421,7.368c0.637-0.016,1.274-0.036,1.913-0.058l5.295-7.195
			C219.153,79.454,218.56,79.413,217.964,79.379z"/>
		<path fill="#0A1A9C" d="M214.755,79.276l-5.515,7.496c0.628-0.004,1.259-0.011,1.888-0.023l5.438-7.39
			C215.963,79.325,215.36,79.302,214.755,79.276z"/>
		<path fill="#0A1A9C" d="M276.825,79.129c-0.16,0-0.318,0.004-0.479,0.007l-5.533,7.52c2.004,0.076,4.01,0.128,6.012,0.13
			c0.283,0,0.564-0.009,0.845-0.011l5.527-7.511C281.073,79.178,278.95,79.125,276.825,79.129z"/>
		<path fill="#0A1A9C" d="M257.67,79.956c-5.292,0.592-10.583,1.415-15.873,3.001c5.29,1.584,10.581,2.407,15.873,3.001
			c1.78,0.19,3.563,0.331,5.343,0.455l5.287-7.184C264.755,79.35,261.212,79.578,257.67,79.956z"/>
		<path fill="#0A1A9C" d="M273.042,79.163l-5.448,7.404c0.606,0.032,1.212,0.051,1.817,0.075l5.521-7.503
			C274.304,79.142,273.673,79.152,273.042,79.163z"/>
		<path fill="#0A1A9C" d="M269.721,79.217l-5.31,7.216c0.594,0.041,1.19,0.083,1.787,0.115l5.432-7.381
			C270.993,79.181,270.357,79.197,269.721,79.217z"/>
		<path fill="#0A1A9C" d="M295.983,79.945c-1.665-0.177-3.328-0.314-4.993-0.432l-5.271,7.163c3.422-0.12,6.842-0.345,10.264-0.708
			c5.291-0.59,10.58-1.417,15.873-3.012C306.563,81.36,301.274,80.535,295.983,79.945z"/>
		<path fill="#0A1A9C" d="M287.808,79.379l-5.42,7.368c0.637-0.016,1.273-0.036,1.912-0.058l5.295-7.195
			C288.999,79.454,288.404,79.413,287.808,79.379z"/>
		<path fill="#0A1A9C" d="M284.6,79.276l-5.515,7.496c0.629-0.004,1.259-0.011,1.887-0.023l5.438-7.39
			C285.808,79.325,285.204,79.302,284.6,79.276z"/>
	</g>
</g>
</svg>
