<?xml version="1.0" encoding="utf-8"?>
<!-- Generator: Adobe Illustrator 15.0.2, SVG Export Plug-In . SVG Version: 6.00 Build 0)  -->
<!DOCTYPE svg PUBLIC "-//W3C//DTD SVG 1.1//EN" "http://www.w3.org/Graphics/SVG/1.1/DTD/svg11.dtd">
<svg version="1.1" id="Layer_1" xmlns="http://www.w3.org/2000/svg" xmlns:xlink="http://www.w3.org/1999/xlink" x="0px" y="0px"
	 width="296.602px" height="138.062px" viewBox="0 0 296.602 138.062" enable-background="new 0 0 296.602 138.062"
	 xml:space="preserve">
<g>
	<path fill="#EF3D39" d="M164.082,82.401c-0.246-0.099-0.656-0.228-1.224-0.228c-1.227,0.009-3.225,0.57-5.729,3.652v-0.004
		c-1.193,1.479-2.494,3.541-3.851,6.357c3.007,0.584,4.744,1.709,5.703,2.844c0.461,0.545,0.732,1.084,0.9,1.553
		c2.822-2.949,4.502-6.906,4.502-11.121C164.385,84.449,164.281,83.424,164.082,82.401z"/>
	<path fill="#EF3D39" d="M153.592,70.265c-0.187,0.146-0.441,0.381-0.676,0.759c-0.375,0.58-0.729,1.44-0.729,2.771
		c0,1.082,0.238,2.476,0.918,4.24c0.67,1.748,1.806,3.877,3.541,6.414c2.451-2.785,4.65-3.555,6.213-3.545
		c0.316,0,0.604,0.031,0.853,0.078C162.237,75.84,158.375,71.94,153.592,70.265z"/>
	<path fill="#EF3D39" d="M158.828,97.58c-0.056-0.367-0.226-1.027-0.818-1.731c-0.795-0.949-2.406-2.035-5.705-2.554h-0.01h0.01
		c-1.16-0.182-2.512-0.285-4.107-0.285c-0.99,0-2.098,0.054-3.285,0.144c0.531,1.561,0.758,2.887,0.758,3.988
		c0,1.553-0.424,2.688-0.928,3.44c-0.115,0.176-0.229,0.326-0.348,0.453c1.252,0.314,2.553,0.49,3.887,0.49
		c1.1,0,2.221-0.117,3.326-0.354h0.006C154.383,100.596,156.826,99.317,158.828,97.58z"/>
	<path fill="#EF3D39" d="M137.784,73.295c0.051,0.369,0.225,1.031,0.812,1.748c0.807,0.963,2.398,2.062,5.688,2.58l0,0
		c1.135,0.176,2.477,0.283,4.043,0.283c1.017,0,2.14-0.053,3.341-0.15c-0.523-1.555-0.748-2.864-0.748-3.967
		c0-1.561,0.42-2.689,0.922-3.453c0.125-0.188,0.246-0.351,0.367-0.492c-1.252-0.315-2.558-0.489-3.888-0.489
		c-1.102,0-2.211,0.117-3.34,0.354C142.218,70.284,139.773,71.563,137.784,73.295z"/>
	<path fill="#EF3D39" d="M132.523,88.483c0.256,0.102,0.66,0.229,1.223,0.229c1.24-0.014,3.24-0.578,5.756-3.686l0,0
		c1.191-1.463,2.482-3.506,3.818-6.295c-3.006-0.592-4.736-1.722-5.697-2.871c-0.461-0.555-0.734-1.09-0.895-1.56
		c-2.822,2.947-4.51,6.912-4.51,11.121C132.223,86.44,132.331,87.459,132.523,88.483z"/>
	<path fill="#EF3D39" d="M143.02,100.61c0.182-0.139,0.42-0.373,0.654-0.721c0.377-0.572,0.727-1.433,0.727-2.755
		c0-1.096-0.24-2.512-0.949-4.315c-0.676-1.734-1.803-3.853-3.51-6.355c-2.434,2.761-4.631,3.521-6.191,3.521
		c-0.314,0-0.6-0.031-0.854-0.086C134.382,95.043,138.236,98.944,143.02,100.61z"/>
</g>
<path fill="#939598" d="M38.046,119.137h-3.377l-10.354,18.926h3.119l2.434-4.654h12.807l2.408,4.654h3.502L38.046,119.137z
	 M31.177,130.985l5.107-9.691l5.105,9.691H31.177z"/>
<path fill="#939598" d="M80.195,119.137l-7.99,15.77l-8.365-15.771h-3.414l10.354,18.927h2.641l9.896-18.927L80.195,119.137
	L80.195,119.137z"/>
<path fill="#939598" d="M98.87,119.137v18.926h3.154v-18.926H98.87L98.87,119.137z"/>
<path fill="#939598" d="M131.307,119.137h-3.365l-10.354,18.926h3.117l2.426-4.654h12.801l2.434,4.654h3.479L131.307,119.137z
	 M124.456,130.985l5.094-9.691l5.1,9.691H124.456z"/>
<path fill="#939598" d="M152.93,119.137v2.565h8.656v16.359h3.146v-16.359h8.701v-2.566L152.93,119.137L152.93,119.137z"/>
<path fill="#939598" d="M188.192,119.137v18.926h3.158v-18.926H188.192L188.192,119.137z"/>
<path fill="#939598" d="M231.424,120.065c-0.623-0.621-1.785-0.931-3.502-0.931h-13.129c-1.705,0-2.877,0.31-3.5,0.931
	c-0.635,0.623-0.945,1.807-0.945,3.537v9.989c0,1.732,0.312,2.925,0.945,3.541c0.623,0.623,1.795,0.931,3.5,0.931h13.129
	c1.717,0,2.879-0.308,3.502-0.931c0.6-0.616,0.916-1.809,0.916-3.541v-9.989C232.34,121.871,232.024,120.688,231.424,120.065z
	 M229.176,135.427h-15.664v-13.771h15.664V135.427z"/>
<path fill="#939598" d="M269.35,119.137v10.383c0,1.93,0.104,3.479,0.297,4.651c-0.758-0.977-1.477-1.764-2.166-2.387
	l-14.168-12.647h-1.979v18.926h2.932v-11.154c0-1.641-0.072-3.021-0.213-4.146c0.268,0.465,0.596,0.899,0.988,1.286
	c0.065,0.068,0.387,0.363,0.92,0.841l14.563,13.174h1.765v-18.926L269.35,119.137L269.35,119.137z"/>
<path fill="#939598" d="M62.104,12.699c-0.068,0-0.141,0.013-0.191,0.057c-0.58,0.249-1.26,0.46-2.062,0.647
	c-0.803,0.167-1.633,0.305-2.498,0.421c-0.855,0.113-1.703,0.2-2.566,0.241c-0.846,0.06-1.617,0.067-2.312,0.067h-2.494
	c-0.893,0-1.623-0.009-2.16-0.041c-0.148,0-0.229,0.097-0.229,0.28c0,0.071,0.006,0.118,0.021,0.122
	c0.016,0.021,0.102,0.021,0.271,0.021c0.25,0,0.578,0.014,0.967,0.027c0.402,0.016,0.723,0.037,0.938,0.071
	c0.297,0.042,0.365,0.212,0.234,0.532c-0.762,1.724-1.678,3.557-2.721,5.489c-1.06,1.931-2.104,3.78-3.119,5.526
	C43.505,27.351,42.716,28.63,41.78,30c-0.924,1.38-1.705,2.666-2.348,3.878c-0.154,0.327-0.242,0.563-0.242,0.723
	c0,0.166,0.043,0.295,0.125,0.382c0.074,0.098,0.283,0.182,0.594,0.239c0.326,0.067,0.777,0.11,1.365,0.154
	c0.596,0.025,1.389,0.042,2.369,0.042h0.535c0.186,0,0.383-0.018,0.582-0.042c0.15-0.044,0.24-0.102,0.24-0.199
	c0-0.127-0.102-0.194-0.295-0.194c-0.934,0-1.514-0.101-1.779-0.311c-0.25-0.198-0.381-0.455-0.381-0.736
	c0-0.224,0.049-0.479,0.141-0.778c0.271-0.661,0.732-1.664,1.426-2.987c0.68-1.325,1.562-2.915,2.648-4.767
	c0.17-0.256,0.367-0.385,0.639-0.385c0.338,0.062,0.814,0.102,1.408,0.122c0.596,0.007,1.146,0.024,1.646,0.024h1.541
	c0.566,0,1.141-0.02,1.721-0.024c0.574-0.021,1.131-0.036,1.65-0.053c0.533-0.008,0.973-0.025,1.32-0.025
	c0.158-0.097,0.281-0.266,0.381-0.507c0.105-0.239,0.146-0.376,0.146-0.453l-0.104-0.097c-0.916,0.257-1.926,0.438-3.029,0.55
	c-1.113,0.117-2.217,0.169-3.338,0.169c-1.02,0-1.812-0.07-2.344-0.237c-0.557-0.154-0.812-0.325-0.812-0.521
	c0.246-0.48,0.596-1.118,1.021-1.916c0.436-0.807,0.896-1.64,1.395-2.497c0.49-0.862,0.959-1.683,1.412-2.471
	c0.447-0.774,0.818-1.383,1.102-1.791c0.125-0.199,0.254-0.337,0.352-0.437c0.111-0.103,0.299-0.152,0.566-0.188
	c0.477-0.046,1.043-0.054,1.689-0.07c0.66-0.024,1.346-0.039,2.049-0.055c0.686-0.016,1.379-0.027,2.057-0.05
	c0.664-0.003,1.297-0.035,1.857-0.064c0.271,0,0.457-0.17,0.574-0.477c0.161-0.423,0.383-0.787,0.68-1.104
	C62.341,12.756,62.259,12.699,62.104,12.699z"/>
<path fill="#939598" d="M87.085,3.287c-0.15-0.148-0.365-0.222-0.623-0.222c-0.354,0-1.031,0.279-2.062,0.813
	c-1.014,0.554-2.137,1.327-3.352,2.354c-0.895,0.734-1.625,1.471-2.205,2.2c-0.578,0.736-1.139,1.524-1.68,2.347
	c-0.449,0.676-0.932,1.451-1.463,2.326c-0.523,0.891-1.076,1.807-1.65,2.761c-0.582,0.961-1.158,1.933-1.744,2.95
	c-0.598,0.997-1.164,1.976-1.705,2.894c-0.316,0.552-0.809,1.336-1.49,2.393c-0.656,1.062-1.338,2.174-2.016,3.355
	c-0.662,1.188-1.252,2.317-1.746,3.388c-0.494,1.061-0.74,1.887-0.74,2.471c0,0.562,0.188,1.057,0.559,1.45
	c0.367,0.396,0.961,0.609,1.789,0.609c0.959,0,1.922-0.231,2.883-0.678c0.955-0.456,1.871-1.009,2.746-1.68
	c0.885-0.664,1.717-1.408,2.498-2.203c0.789-0.802,1.467-1.548,2.041-2.255c0.125-0.124,0.17-0.239,0.145-0.354
	c-0.025-0.109-0.174-0.053-0.385,0.169c-0.475,0.566-1.072,1.212-1.75,1.938c-0.688,0.72-1.418,1.396-2.207,2.043
	c-0.781,0.63-1.615,1.17-2.469,1.624c-0.865,0.447-1.695,0.671-2.479,0.671c-0.939,0-1.405-0.517-1.405-1.534
	c0-0.631,0.187-1.419,0.554-2.335c0.365-0.937,0.805-1.877,1.297-2.838c0.492-0.959,1.004-1.879,1.512-2.739
	c0.504-0.857,0.918-1.547,1.201-2.059c1.623-0.884,3.158-1.916,4.596-3.086c1.436-1.173,2.752-2.387,3.945-3.668
	c1.199-1.286,2.271-2.567,3.219-3.865c0.941-1.28,1.734-2.498,2.398-3.637c0.645-1.126,1.156-2.133,1.512-2.988
	c0.344-0.863,0.517-1.525,0.517-1.962C87.32,3.638,87.255,3.43,87.085,3.287z M84.118,9.057c-0.701,1.535-1.662,3.118-2.875,4.753
	c-1.217,1.622-2.662,3.218-4.346,4.766c-1.682,1.555-3.471,2.862-5.387,3.947c1.369-2.199,2.568-4.117,3.57-5.724
	c1.002-1.627,1.875-2.978,2.594-4.073c0.719-1.103,1.297-1.998,1.762-2.654c0.467-0.679,0.832-1.184,1.086-1.536
	c0.668-0.858,1.229-1.566,1.652-2.118c0.434-0.534,0.799-0.959,1.094-1.271c0.316-0.291,0.553-0.501,0.752-0.586
	c0.186-0.102,0.365-0.16,0.523-0.16c0.424,0,0.619,0.271,0.619,0.778C85.165,6.234,84.807,7.52,84.118,9.057z"/>
<path fill="#939598" d="M91.993,17.589c-0.443,0-0.822,0.187-1.131,0.578c-0.297,0.381-0.447,0.781-0.447,1.201
	c0,0.378,0.189,0.563,0.578,0.563c0.404,0,0.785-0.187,1.125-0.563c0.336-0.386,0.508-0.775,0.508-1.159
	C92.626,17.8,92.413,17.589,91.993,17.589z M94.837,28.536c-0.016-0.071-0.096-0.029-0.25,0.127
	c-0.357,0.479-0.85,1.056-1.496,1.723c-0.637,0.677-1.322,1.312-2.074,1.915c-0.764,0.606-1.512,1.132-2.285,1.552
	c-0.76,0.438-1.467,0.667-2.098,0.667c-0.355,0-0.637-0.102-0.85-0.274c-0.213-0.179-0.312-0.465-0.312-0.841
	c0-0.338,0.1-0.829,0.312-1.441c0.213-0.604,0.492-1.267,0.85-1.987c0.352-0.721,0.734-1.452,1.174-2.227
	c0.43-0.763,0.857-1.471,1.264-2.104c0.07-0.065,0.131-0.152,0.176-0.295c0.039-0.12,0.064-0.206,0.064-0.284
	c0-0.097-0.086-0.139-0.24-0.139c-0.129,0-0.395,0.083-0.787,0.268c-0.398,0.167-0.68,0.384-0.85,0.635
	c-0.254,0.353-0.59,0.888-1.025,1.583c-0.43,0.701-0.859,1.45-1.283,2.209c-0.439,0.769-0.818,1.513-1.131,2.232
	c-0.32,0.724-0.477,1.281-0.477,1.69c0,0.354,0.068,0.638,0.205,0.848c0.146,0.212,0.328,0.378,0.537,0.507
	c0.199,0.12,0.443,0.199,0.693,0.241c0.254,0.025,0.477,0.041,0.658,0.041c0.555,0,1.156-0.106,1.82-0.34
	c0.678-0.229,1.326-0.533,1.977-0.96c0.834-0.533,1.734-1.255,2.719-2.155c1.008-0.893,1.881-1.836,2.637-2.819
	C94.837,28.75,94.863,28.623,94.837,28.536z"/>
<path fill="#939598" d="M114.005,21.564c-0.115-0.277-0.229-0.417-0.354-0.417c-0.195,0-0.396,0.193-0.618,0.621
	c-0.3,0.501-0.579,0.985-0.849,1.435c-0.27,0.436-0.535,0.892-0.789,1.345c-0.129-0.044-0.299-0.059-0.521-0.059
	c-0.777,0-1.537,0.19-2.303,0.574c-0.869,0.427-1.723,1.061-2.535,1.922c-0.838,0.857-1.582,1.773-2.23,2.733
	c-0.658,0.959-1.182,1.878-1.592,2.753c-0.395,0.872-0.592,1.551-0.592,2.047c0,0.406,0.1,0.704,0.281,0.9
	c0.195,0.192,0.438,0.278,0.721,0.278c0.379,0,0.814-0.157,1.297-0.494c0.479-0.339,0.984-0.786,1.51-1.363
	c0.521-0.583,1.1-1.241,1.707-2.016c0.604-0.764,1.227-1.581,1.861-2.445c-0.324,0.577-0.818,1.496-1.514,2.752
	c-0.686,1.271-1.449,2.68-2.328,4.273c-0.857,1.576-1.746,3.228-2.676,4.948c-0.934,1.734-1.805,3.354-2.639,4.895
	c-1.27,2.428-2.584,4.476-3.908,6.137c-1.324,1.664-2.666,3.001-4.043,4.047c-1.371,1.046-2.754,1.777-4.146,2.23
	c-1.383,0.454-2.766,0.67-4.146,0.67c-1.314,0-2.539-0.133-3.686-0.405c-1.156-0.281-2.156-0.676-3.002-1.199
	c-0.848-0.519-1.51-1.199-1.99-2.016c-0.48-0.819-0.719-1.781-0.719-2.894c0-0.353,0.043-0.686,0.096-0.984
	c0.076-0.313,0.129-0.563,0.201-0.789c0-0.169-0.061-0.235-0.145-0.235c-0.1,0-0.166,0.05-0.193,0.177
	c-0.102,0.271-0.17,0.609-0.236,1.046c-0.076,0.423-0.104,0.833-0.104,1.218c0,0.921,0.115,1.818,0.342,2.677
	c0.225,0.871,0.604,1.635,1.17,2.314c0.564,0.657,1.322,1.193,2.295,1.586c0.979,0.416,2.217,0.611,3.729,0.611
	c2.049,0,3.92-0.299,5.623-0.893c1.709-0.594,3.287-1.41,4.742-2.438c1.451-1.046,2.775-2.271,3.979-3.693
	c1.193-1.429,2.309-2.941,3.326-4.571c1.254-2.043,2.438-3.975,3.545-5.779c1.117-1.812,2.264-3.672,3.406-5.602
	c1.156-1.945,2.367-4.052,3.643-6.333c1.275-2.285,2.719-4.91,4.311-7.884c0.158-0.28,0.24-0.577,0.24-0.857
	C114.171,22.135,114.113,21.853,114.005,21.564z M109.093,28.603c-0.76,1.131-1.504,2.133-2.227,3.034
	c-0.725,0.891-1.367,1.604-1.945,2.141c-0.562,0.554-0.959,0.822-1.145,0.822c-0.197,0-0.295-0.174-0.295-0.522
	c0-0.3,0.098-0.762,0.268-1.412c0.186-0.663,0.447-1.385,0.852-2.188c0.379-0.787,0.855-1.604,1.436-2.435
	c0.566-0.836,1.256-1.583,2.062-2.262c0.281-0.251,0.619-0.425,1.029-0.508c0.391-0.071,0.812-0.11,1.268-0.11h0.334
	c0.156,0,0.285,0.008,0.385,0.039C110.536,26.364,109.857,27.49,109.093,28.603z"/>
<path fill="#939598" d="M153.278,1.791c-0.266-0.45-0.618-0.812-1.055-1.067c-0.424-0.257-0.893-0.436-1.367-0.55
	C150.377,0.055,149.928,0,149.469,0c-1.783,0-3.566,0.653-5.341,1.938c-1.777,1.299-3.523,2.975-5.244,5.021
	c-1.734,2.027-3.412,4.314-5.062,6.793c-1.637,2.502-3.229,4.94-4.77,7.34c-1.309,2.075-2.598,4.188-3.879,6.345
	c-1.283,2.155-2.572,4.461-3.938,6.88c-0.082,0.205-0.133,0.371-0.133,0.524c0,0.23,0.117,0.384,0.375,0.451
	c0.271,0.086,0.465,0.129,0.635,0.129c0.215,0,0.453-0.256,0.719-0.769c0.348-0.671,0.76-1.433,1.24-2.294
	c0.479-0.873,0.945-1.704,1.396-2.492c1.115-1.513,2.045-2.528,2.797-3.079c0.744-0.534,1.27-0.808,1.562-0.808
	c0.086,0,0.145,0.071,0.145,0.241c0,0.285-0.17,0.779-0.533,1.454c-0.34,0.696-0.732,1.442-1.172,2.256
	c-0.428,0.818-0.812,1.626-1.172,2.428c-0.352,0.792-0.52,1.452-0.52,1.957c0,0.542,0.148,0.962,0.465,1.271
	c0.32,0.297,0.758,0.451,1.293,0.451c0.707,0,1.482-0.212,2.328-0.647c0.848-0.423,1.693-0.988,2.543-1.697
	c0.848-0.703,1.68-1.488,2.492-2.354c0.822-0.857,1.525-1.72,2.131-2.579c0-0.129-0.025-0.196-0.104-0.196
	c-0.053,0-0.125,0.028-0.178,0.102c-1.74,2.295-3.26,3.937-4.604,4.879c-1.348,0.978-2.375,1.44-3.115,1.44
	c-0.449,0-0.801-0.127-1.055-0.382c-0.254-0.254-0.379-0.636-0.379-1.145c0-0.451,0.141-1.046,0.424-1.775
	c0.295-0.734,0.635-1.479,1.023-2.256c0.412-0.763,0.818-1.48,1.227-2.158c0.414-0.666,0.752-1.201,1.002-1.581
	c0.303-0.386,0.439-0.667,0.439-0.858c0-0.229-0.139-0.338-0.439-0.338c-0.379,0-0.844,0.142-1.381,0.437
	c-0.549,0.28-1.1,0.619-1.68,1.005c-0.576,0.377-1.098,0.772-1.574,1.154c-0.479,0.375-0.836,0.663-1.062,0.859
	c1.916-3.764,3.684-7.042,5.295-9.806c1.617-2.764,3.111-5.103,4.479-7.048c1.389-1.92,2.65-3.502,3.812-4.714
	c1.164-1.213,2.27-2.173,3.277-2.846c1.039-0.696,1.98-1.162,2.854-1.402c0.883-0.235,1.736-0.346,2.57-0.346
	c0.96,0,1.733,0.129,2.349,0.396c0.604,0.277,1.072,0.604,1.412,0.96c0.342,0.377,0.565,0.741,0.664,1.124
	c0.108,0.385,0.168,0.692,0.168,0.918c0,0.053,0.026,0.113,0.084,0.171c0.045,0.042,0.09,0.012,0.143-0.077
	c0.039-0.094,0.092-0.275,0.142-0.53c0.045-0.256,0.067-0.635,0.067-1.141C153.686,2.865,153.553,2.259,153.278,1.791z"/>
<path fill="#939598" d="M155.918,25.259h-5.955c0.656-1.121,1.32-2.239,1.99-3.354c0.692-1.108,1.399-2.181,2.131-3.211
	c0.17-0.25,0.412-0.466,0.731-0.651c0.312-0.167,0.59-0.294,0.863-0.347c0.109-0.076,0.168-0.146,0.139-0.231
	c-0.028-0.067-0.088-0.109-0.139-0.109c-0.498,0.154-1.047,0.367-1.666,0.623c-0.615,0.253-1.1,0.469-1.447,0.62
	c-0.301,0.475-0.629,1-0.996,1.563c-0.36,0.549-0.715,1.13-1.063,1.721l-1.06,1.78c-0.354,0.589-0.682,1.125-0.961,1.602
	l-2.438,0.042c-0.299,0.231-0.494,0.458-0.635,0.678c0,0.129,0.086,0.188,0.238,0.188c0.098,0,0.42-0.013,0.988-0.067
	c0.562-0.046,1.031-0.093,1.41-0.118c-1.113,1.82-1.965,3.361-2.535,4.598c-0.582,1.249-0.867,2.188-0.867,2.828
	c0,0.731,0.199,1.248,0.584,1.562c0.371,0.298,0.832,0.452,1.334,0.452c0.957,0,1.912-0.154,2.827-0.479
	c0.93-0.329,1.933-0.83,3.025-1.536c0.158-0.06,0.188-0.146,0.084-0.255c-0.084-0.115-0.187-0.129-0.279-0.032
	c-0.729,0.453-1.42,0.808-2.082,1.074c-0.652,0.282-1.25,0.409-1.75,0.409c-1.059,0-1.582-0.578-1.582-1.722
	c0-0.83,0.24-1.805,0.715-2.924c0.488-1.129,1.174-2.479,2.065-4.073c0.479-0.029,1.047-0.068,1.672-0.1
	c0.643-0.023,1.258-0.057,1.881-0.099c0.592-0.023,1.156-0.055,1.676-0.07c0.511-0.017,0.89-0.025,1.146-0.025
	c0.063-0.032,0.092-0.075,0.092-0.144C156.055,25.389,156.002,25.32,155.918,25.259z"/>
<path fill="#939598" d="M181.143,15.052c-0.383-0.43-0.815-0.709-1.305-0.844c-0.461-0.145-0.969-0.212-1.476-0.212
	c-0.764,0-1.452,0.096-2.09,0.293c-0.619,0.183-1.16,0.413-1.625,0.665c-0.471,0.249-0.856,0.535-1.196,0.842
	c-0.345,0.304-0.611,0.57-0.793,0.792c-0.55,0.635-1.002,1.364-1.361,2.194c-0.369,0.838-0.557,1.669-0.557,2.502
	s0.168,1.562,0.504,2.199c0.327,0.637,0.817,1.369,1.455,2.2c0.733,0.937,1.227,1.681,1.495,2.23
	c0.259,0.559,0.384,1.113,0.384,1.664c0,1.114-0.354,2.075-1.035,2.891c-0.688,0.814-1.521,1.452-2.521,1.891
	c-0.479,0.228-1.014,0.394-1.596,0.504c-0.594,0.117-1.189,0.174-1.746,0.174c-1.537,0-2.688-0.354-3.414-1.03
	c-0.735-0.69-1.104-1.479-1.104-2.369c0-0.301,0.043-0.576,0.145-0.855c0-0.174-0.045-0.243-0.145-0.243
	c-0.097,0-0.14,0.028-0.14,0.082c-0.125,0.455-0.289,1.019-0.465,1.706c-0.17,0.694-0.317,1.303-0.449,1.854
	c0.039,0.083,0.105,0.184,0.25,0.249c0.107,0.09,0.257,0.173,0.427,0.271c0.604,0.283,1.268,0.489,1.987,0.621
	c0.718,0.125,1.439,0.196,2.183,0.196c1.756,0,3.352-0.328,4.778-0.96c0.578-0.252,1.156-0.609,1.757-1.029
	c0.592-0.437,1.139-0.916,1.635-1.467c0.502-0.535,0.893-1.126,1.205-1.768c0.293-0.646,0.451-1.295,0.451-1.972
	c0-0.378-0.033-0.706-0.103-0.986c-0.059-0.27-0.17-0.551-0.34-0.863c-0.154-0.295-0.365-0.627-0.629-0.997
	c-0.289-0.371-0.631-0.819-1.051-1.373c-0.539-0.702-1.035-1.461-1.49-2.292c-0.445-0.833-0.658-1.727-0.658-2.688
	c0-1.253,0.402-2.237,1.197-3.001c0.789-0.748,1.836-1.127,3.115-1.127c1.207,0,2.096,0.27,2.666,0.774
	c0.561,0.51,0.829,1.059,0.829,1.622c0,0.3-0.049,0.532-0.145,0.722c0.096,0.167,0.215,0.21,0.336,0.152
	c0.1-0.352,0.229-0.787,0.412-1.3c0.188-0.505,0.324-0.931,0.453-1.253C181.381,15.503,181.311,15.277,181.143,15.052z"/>
<path fill="#939598" d="M196.74,17.589c-0.453,0-0.822,0.187-1.136,0.578c-0.307,0.381-0.444,0.781-0.444,1.201
	c0,0.378,0.184,0.563,0.577,0.563c0.408,0,0.791-0.187,1.115-0.563c0.332-0.386,0.502-0.775,0.502-1.159
	C197.356,17.8,197.149,17.589,196.74,17.589z M199.321,28.664c-0.354,0.479-0.848,1.056-1.481,1.724
	c-0.633,0.676-1.322,1.312-2.09,1.914c-0.742,0.606-1.51,1.132-2.267,1.552c-0.772,0.438-1.471,0.667-2.119,0.667
	c-0.354,0-0.614-0.102-0.829-0.274c-0.216-0.179-0.312-0.464-0.312-0.841c0-0.338,0.098-0.829,0.312-1.441
	c0.215-0.604,0.477-1.266,0.829-1.987c0.355-0.721,0.753-1.452,1.188-2.227c0.42-0.763,0.848-1.471,1.268-2.104
	c0.058-0.065,0.115-0.152,0.173-0.295c0.039-0.12,0.069-0.206,0.069-0.284c0-0.097-0.088-0.139-0.242-0.139
	c-0.118,0-0.395,0.083-0.782,0.268c-0.416,0.167-0.685,0.384-0.855,0.635c-0.25,0.353-0.59,0.888-1.02,1.583
	c-0.431,0.701-0.859,1.45-1.289,2.209c-0.438,0.769-0.818,1.513-1.125,2.232c-0.324,0.724-0.482,1.281-0.482,1.69
	c0,0.354,0.072,0.638,0.209,0.848c0.146,0.212,0.328,0.378,0.527,0.507c0.207,0.12,0.436,0.199,0.701,0.241
	c0.262,0.025,0.467,0.041,0.659,0.041c0.539,0,1.158-0.106,1.816-0.34c0.682-0.229,1.33-0.533,1.982-0.96
	c0.813-0.533,1.731-1.255,2.721-2.155c0.981-0.893,1.875-1.836,2.639-2.818c0.066-0.155,0.08-0.282,0.066-0.369
	C199.574,28.465,199.485,28.507,199.321,28.664z"/>
<path fill="#939598" d="M218.766,21.564c-0.113-0.277-0.221-0.417-0.35-0.417c-0.195,0-0.416,0.193-0.623,0.621
	c-0.295,0.501-0.574,0.985-0.844,1.435c-0.265,0.436-0.537,0.892-0.791,1.345c-0.127-0.044-0.3-0.059-0.521-0.059
	c-0.779,0-1.535,0.19-2.301,0.574c-0.875,0.427-1.719,1.061-2.535,1.922c-0.834,0.857-1.582,1.773-2.227,2.733
	c-0.662,0.959-1.189,1.878-1.597,2.753c-0.395,0.872-0.598,1.551-0.598,2.047c0,0.406,0.1,0.704,0.285,0.9
	c0.194,0.192,0.438,0.278,0.719,0.278c0.383,0,0.82-0.157,1.299-0.494c0.478-0.339,0.988-0.786,1.508-1.363
	c0.521-0.583,1.103-1.241,1.709-2.016c0.605-0.764,1.226-1.581,1.861-2.445c-0.312,0.577-0.82,1.496-1.514,2.752
	c-0.681,1.271-1.447,2.68-2.326,4.273c-0.857,1.576-1.746,3.228-2.68,4.948c-0.916,1.734-1.804,3.354-2.644,4.895
	c-1.264,2.428-2.58,4.476-3.902,6.137c-1.323,1.664-2.668,3.001-4.047,4.047c-1.36,1.046-2.748,1.777-4.146,2.23
	c-1.379,0.454-2.76,0.67-4.146,0.67c-1.299,0-2.541-0.133-3.678-0.405c-1.158-0.281-2.156-0.676-3.012-1.199
	c-0.849-0.519-1.504-1.199-1.986-2.016c-0.479-0.819-0.715-1.781-0.715-2.894c0-0.353,0.037-0.686,0.1-0.984
	c0.066-0.313,0.121-0.563,0.195-0.789c0-0.169-0.059-0.235-0.141-0.235c-0.101,0-0.17,0.05-0.201,0.177
	c-0.092,0.271-0.183,0.609-0.236,1.046c-0.061,0.423-0.096,0.833-0.096,1.218c0,0.921,0.111,1.818,0.332,2.677
	c0.229,0.871,0.623,1.635,1.176,2.314c0.562,0.657,1.322,1.193,2.299,1.586c0.972,0.416,2.207,0.611,3.722,0.611
	c2.049,0,3.924-0.299,5.633-0.893c1.707-0.594,3.278-1.41,4.731-2.438c1.457-1.046,2.779-2.271,3.98-3.693
	c1.197-1.429,2.311-2.941,3.344-4.571c1.24-2.043,2.404-3.975,3.537-5.779c1.109-1.812,2.256-3.672,3.396-5.602
	c1.16-1.945,2.371-4.052,3.642-6.333c1.283-2.285,2.717-4.91,4.315-7.884c0.17-0.28,0.236-0.577,0.236-0.857
	C218.934,22.135,218.877,21.853,218.766,21.564z M213.854,28.603c-0.754,1.131-1.498,2.133-2.225,3.034
	c-0.724,0.891-1.367,1.604-1.928,2.141c-0.582,0.554-0.978,0.822-1.164,0.822c-0.191,0-0.279-0.174-0.279-0.522
	c0-0.3,0.088-0.762,0.258-1.412c0.187-0.663,0.453-1.385,0.848-2.188c0.382-0.787,0.857-1.604,1.439-2.435
	c0.559-0.836,1.252-1.583,2.059-2.262c0.283-0.251,0.615-0.425,1.029-0.508c0.394-0.071,0.812-0.11,1.262-0.11h0.345
	c0.151,0,0.28,0.008,0.383,0.039C215.299,26.364,214.635,27.49,213.854,28.603z"/>
<path fill="#939598" d="M258.043,1.791c-0.267-0.45-0.615-0.812-1.062-1.067c-0.424-0.257-0.873-0.436-1.366-0.55
	C255.151,0.055,254.672,0,254.229,0c-1.783,0-3.561,0.653-5.34,1.938c-1.772,1.299-3.522,2.975-5.246,5.021
	c-1.721,2.027-3.41,4.314-5.045,6.793c-1.645,2.502-3.242,4.94-4.779,7.34c-1.313,2.075-2.602,4.188-3.881,6.345
	c-1.285,2.155-2.576,4.461-3.936,6.88c-0.08,0.205-0.14,0.371-0.14,0.524c0,0.23,0.125,0.384,0.38,0.451
	c0.27,0.086,0.469,0.129,0.618,0.129c0.232,0,0.482-0.256,0.736-0.769c0.35-0.671,0.76-1.433,1.238-2.294
	c0.479-0.873,0.947-1.704,1.383-2.492c1.127-1.513,2.059-2.528,2.807-3.079c0.767-0.534,1.271-0.808,1.57-0.808
	c0.078,0,0.137,0.071,0.137,0.241c0,0.285-0.184,0.779-0.522,1.454c-0.351,0.696-0.744,1.442-1.185,2.256
	c-0.424,0.818-0.813,1.626-1.168,2.428c-0.35,0.792-0.52,1.452-0.52,1.957c0,0.542,0.149,0.962,0.479,1.271
	c0.312,0.297,0.742,0.451,1.273,0.451c0.709,0,1.488-0.212,2.334-0.647c0.846-0.423,1.693-0.988,2.537-1.697
	c0.842-0.703,1.674-1.488,2.492-2.354c0.817-0.857,1.521-1.72,2.125-2.579c0-0.129-0.025-0.196-0.095-0.196
	c-0.057,0-0.131,0.028-0.182,0.102c-1.74,2.295-3.258,3.937-4.596,4.879c-1.336,0.978-2.379,1.44-3.113,1.44
	c-0.453,0-0.805-0.127-1.059-0.382c-0.261-0.254-0.382-0.636-0.382-1.145c0-0.451,0.144-1.046,0.423-1.775
	c0.291-0.734,0.631-1.479,1.028-2.256c0.406-0.763,0.816-1.48,1.224-2.158c0.409-0.666,0.756-1.201,1.02-1.581
	c0.279-0.386,0.422-0.667,0.422-0.858c0-0.229-0.143-0.338-0.422-0.338c-0.396,0-0.859,0.142-1.4,0.437
	c-0.547,0.28-1.098,0.619-1.678,1.005c-0.574,0.377-1.102,0.772-1.576,1.154c-0.479,0.375-0.834,0.663-1.061,0.859
	c1.92-3.764,3.686-7.042,5.293-9.806c1.621-2.764,3.109-5.103,4.477-7.048c1.386-1.92,2.652-3.502,3.812-4.714
	c1.168-1.213,2.27-2.173,3.283-2.846c1.035-0.696,1.975-1.162,2.852-1.402c0.875-0.235,1.732-0.346,2.562-0.346
	c0.961,0,1.752,0.129,2.356,0.396c0.607,0.277,1.068,0.604,1.408,0.96c0.338,0.377,0.57,0.741,0.662,1.124
	c0.119,0.385,0.174,0.692,0.174,0.918c0,0.053,0.029,0.113,0.074,0.171c0.055,0.042,0.092,0.012,0.151-0.077
	c0.041-0.094,0.099-0.275,0.14-0.53c0.047-0.256,0.069-0.635,0.069-1.141C258.451,2.865,258.309,2.259,258.043,1.791z"/>
<path fill="#939598" d="M260.678,25.259h-5.951c0.633-1.121,1.312-2.239,1.99-3.354c0.691-1.108,1.396-2.181,2.145-3.211
	c0.15-0.25,0.394-0.466,0.722-0.651c0.309-0.167,0.59-0.294,0.856-0.347c0.129-0.076,0.168-0.146,0.146-0.231
	c-0.041-0.067-0.086-0.109-0.146-0.109c-0.487,0.154-1.043,0.367-1.666,0.623c-0.614,0.253-1.094,0.469-1.453,0.62
	c-0.299,0.475-0.614,1-0.981,1.563c-0.363,0.549-0.736,1.13-1.068,1.721l-1.063,1.78c-0.349,0.589-0.679,1.125-0.957,1.602
	l-2.441,0.042c-0.293,0.231-0.508,0.458-0.633,0.678c0,0.129,0.086,0.188,0.238,0.188c0.102,0,0.438-0.013,0.992-0.067
	c0.561-0.046,1.024-0.093,1.411-0.118c-1.116,1.82-1.965,3.361-2.543,4.598c-0.575,1.249-0.858,2.188-0.858,2.828
	c0,0.731,0.194,1.248,0.574,1.562c0.381,0.298,0.838,0.452,1.344,0.452c0.957,0,1.904-0.154,2.822-0.479
	c0.928-0.329,1.93-0.83,3.024-1.536c0.162-0.06,0.188-0.146,0.092-0.255c-0.092-0.115-0.184-0.129-0.286-0.032
	c-0.73,0.453-1.425,0.808-2.087,1.074c-0.646,0.282-1.241,0.409-1.743,0.409c-1.062,0-1.58-0.578-1.58-1.722
	c0-0.83,0.235-1.805,0.715-2.924c0.481-1.129,1.168-2.479,2.063-4.073c0.476-0.029,1.043-0.068,1.668-0.1
	c0.644-0.023,1.263-0.057,1.865-0.099c0.623-0.023,1.172-0.055,1.695-0.07c0.492-0.017,0.881-0.025,1.141-0.025
	c0.074-0.032,0.103-0.075,0.103-0.144C260.823,25.389,260.762,25.32,260.678,25.259z"/>
<path fill="#FFFFFF" d="M205.069,74.727"/>
<g>
	<g>
		<path fill="#939598" d="M67.016,113.926c0-4.553,9.908-22.416,6.33-22.416H60.678C57.105,91.51,67.016,109.373,67.016,113.926
			L67.016,113.926z"/>
		<path fill="#939598" d="M74.139,66.422c0-1.012-1.412-1.827-3.139-1.827h-7.938c-1.742,0-3.148,0.815-3.148,1.827v9.881
			c0,1.005,1.406,1.818,3.148,1.818H71c1.727,0,3.139-0.813,3.139-1.818V66.422z"/>
		<path fill="#939598" d="M33.557,67.961c-0.156,0-0.307,0.006-0.451,0.006l-5.305,7.206c1.92,0.078,3.84,0.129,5.756,0.129
			c0.273,0,0.541-0.016,0.814-0.016l5.291-7.188C37.63,68.014,35.594,67.961,33.557,67.961z"/>
		<path fill="#939598" d="M15.206,68.758C10.14,69.323,5.07,70.106,0.001,71.63c5.068,1.519,10.139,2.312,15.205,2.877
			c1.709,0.185,3.416,0.312,5.123,0.435l5.062-6.877C21.997,68.176,18.602,68.397,15.206,68.758z"/>
		<path fill="#939598" d="M29.93,68l-5.209,7.097c0.582,0.021,1.156,0.043,1.734,0.063l5.291-7.185
			C31.139,67.976,30.534,67.986,29.93,68z"/>
		<path fill="#939598" d="M26.755,68.052l-5.086,6.906c0.566,0.043,1.139,0.076,1.713,0.107L28.581,68
			C27.971,68.014,27.361,68.03,26.755,68.052z"/>
		<path fill="#939598" d="M51.911,68.749c-1.596-0.171-3.188-0.307-4.783-0.411l-5.047,6.86c3.273-0.117,6.555-0.334,9.83-0.678
			c5.064-0.568,10.133-1.365,15.209-2.89C62.044,70.098,56.977,69.313,51.911,68.749z"/>
		<path fill="#939598" d="M44.081,68.207l-5.195,7.053c0.611-0.01,1.219-0.038,1.836-0.051l5.072-6.899
			C45.219,68.272,44.652,68.239,44.081,68.207z"/>
		<path fill="#939598" d="M41.009,68.105l-5.285,7.18c0.604-0.002,1.209-0.012,1.807-0.025l5.21-7.077
			C42.165,68.15,41.583,68.131,41.009,68.105z"/>
		<path fill="#939598" d="M100.468,67.961c-0.154,0-0.305,0.006-0.457,0.006l-5.303,7.206c1.918,0.078,3.836,0.129,5.76,0.129
			c0.273,0,0.539-0.016,0.807-0.016l5.295-7.188C104.536,68.014,102.499,67.961,100.468,67.961z"/>
		<path fill="#939598" d="M82.118,68.758c-5.07,0.565-10.137,1.349-15.205,2.874c5.068,1.519,10.135,2.312,15.205,2.877
			c1.703,0.183,3.416,0.312,5.119,0.435l5.062-6.878C88.913,68.176,85.507,68.397,82.118,68.758z"/>
		<path fill="#939598" d="M96.843,68l-5.219,7.097c0.582,0.021,1.16,0.043,1.738,0.063l5.287-7.185
			C98.052,67.976,97.45,67.986,96.843,68z"/>
		<path fill="#939598" d="M93.656,68.052l-5.084,6.906c0.57,0.043,1.146,0.076,1.717,0.107L95.48,68
			C94.878,68.014,94.266,68.03,93.656,68.052z"/>
		<path fill="#939598" d="M118.818,68.749c-1.596-0.171-3.188-0.307-4.781-0.411l-5.045,6.86c3.275-0.117,6.549-0.334,9.826-0.678
			c5.066-0.568,10.133-1.365,15.203-2.89C128.95,70.098,123.885,69.313,118.818,68.749z"/>
		<path fill="#939598" d="M110.988,68.207L105.8,75.26c0.602-0.01,1.217-0.038,1.824-0.051l5.078-6.899
			C112.128,68.272,111.559,68.239,110.988,68.207z"/>
		<path fill="#939598" d="M107.911,68.105l-5.279,7.18c0.596-0.002,1.203-0.012,1.801-0.025l5.211-7.077
			C109.072,68.15,108.493,68.131,107.911,68.105z"/>
	</g>
	<g>
		<path fill="#939598" d="M207.383,67.866"/>
		<path fill="#939598" d="M229.596,113.926c0-4.553,9.9-22.416,6.338-22.416H223.26C219.69,91.51,229.596,109.373,229.596,113.926
			L229.596,113.926z"/>
		<path fill="#939598" d="M236.721,66.422c0-1.012-1.41-1.827-3.145-1.827h-7.933c-1.733,0-3.146,0.815-3.146,1.827v9.881
			c0,1.005,1.412,1.818,3.146,1.818h7.933c1.733,0,3.145-0.813,3.145-1.818V66.422z"/>
		<path fill="#939598" d="M196.143,67.961c-0.154,0-0.303,0.006-0.463,0.006l-5.299,7.206c1.926,0.078,3.844,0.129,5.762,0.129
			c0.271,0,0.539-0.016,0.81-0.016l5.297-7.188C200.207,68.014,198.176,67.961,196.143,67.961z"/>
		<path fill="#939598" d="M177.789,68.758c-5.07,0.565-10.138,1.349-15.213,2.874c5.075,1.519,10.143,2.312,15.213,2.877
			c1.709,0.183,3.416,0.312,5.117,0.435l5.065-6.878C184.58,68.176,181.184,68.397,177.789,68.758z"/>
		<path fill="#939598" d="M192.518,68l-5.219,7.097c0.582,0.021,1.164,0.043,1.74,0.063l5.283-7.185
			C193.727,67.976,193.121,67.986,192.518,68z"/>
		<path fill="#939598" d="M189.338,68.052l-5.086,6.906c0.565,0.043,1.135,0.076,1.711,0.107L191.164,68
			C190.549,68.014,189.949,68.03,189.338,68.052z"/>
		<path fill="#939598" d="M214.494,68.749c-1.597-0.171-3.191-0.307-4.783-0.411l-5.049,6.86c3.28-0.117,6.557-0.334,9.832-0.678
			c5.069-0.568,10.137-1.365,15.202-2.89C224.631,70.098,219.565,69.313,214.494,68.749z"/>
		<path fill="#939598" d="M206.664,68.207l-5.195,7.053c0.615-0.01,1.227-0.038,1.838-0.051l5.07-6.899
			C207.799,68.272,207.231,68.239,206.664,68.207z"/>
		<path fill="#939598" d="M203.59,68.105l-5.283,7.18c0.596-0.002,1.209-0.012,1.807-0.025l5.216-7.077
			C204.744,68.15,204.168,68.131,203.59,68.105z"/>
		<path fill="#939598" d="M263.043,67.961c-0.154,0-0.306,0.006-0.457,0.006l-5.299,7.206c1.916,0.078,3.84,0.129,5.756,0.129
			c0.276,0,0.547-0.016,0.812-0.016l5.295-7.188C267.119,68.014,265.082,67.961,263.043,67.961z"/>
		<path fill="#939598" d="M244.696,68.758c-5.065,0.565-10.133,1.349-15.194,2.874c5.062,1.519,10.129,2.312,15.194,2.877
			c1.707,0.183,3.41,0.312,5.115,0.435l5.07-6.878C251.481,68.176,248.086,68.397,244.696,68.758z"/>
		<path fill="#939598" d="M259.422,68l-5.219,7.097c0.582,0.021,1.155,0.043,1.735,0.063l5.295-7.185
			C260.633,67.976,260.026,67.986,259.422,68z"/>
		<path fill="#939598" d="M256.242,68.052l-5.091,6.906c0.562,0.043,1.14,0.076,1.714,0.107L258.073,68
			C257.461,68.014,256.852,68.03,256.242,68.052z"/>
		<path fill="#939598" d="M281.403,68.749c-1.6-0.171-3.194-0.307-4.786-0.411l-5.05,6.86c3.275-0.117,6.552-0.334,9.836-0.678
			c5.066-0.568,10.13-1.365,15.199-2.89C291.531,70.098,286.469,69.313,281.403,68.749z"/>
		<path fill="#939598" d="M273.565,68.207l-5.188,7.053c0.604-0.01,1.221-0.038,1.828-0.051l5.069-6.899
			C274.707,68.272,274.135,68.239,273.565,68.207z"/>
		<path fill="#939598" d="M270.49,68.105l-5.283,7.18c0.604-0.002,1.213-0.012,1.812-0.025l5.203-7.077
			C271.651,68.15,271.073,68.131,270.49,68.105z"/>
	</g>
</g>
<path fill="#939598" d="M236.537,83.552c-22.435,0-44.867,0-67.299,0c-0.875,0-1.318,0.677-1.318,1.355h-0.041
	c0,5.428-2.188,10.312-5.73,13.859c-3.549,3.537-8.434,5.729-13.848,5.729c-5.418,0-10.305-2.19-13.85-5.729
	c-3.545-3.548-5.73-8.435-5.73-13.859h-0.047c0-0.68-0.436-1.355-1.309-1.355c-22.438,0-44.867,0-67.307,0
	c-1.746,0-1.746,2.716,0,2.716c22.006,0,44.014,0,66.018,0c0.697,11.69,10.355,20.946,22.225,20.946
	c6.152,0,11.738-2.502,15.771-6.528c3.729-3.729,6.114-8.802,6.454-14.418c22.005,0,44.009,0,66.015,0
	C238.291,86.268,238.291,83.552,236.537,83.552z"/>
</svg>
